<svg xmlns="http://www.w3.org/2000/svg" viewBox="0 0 30.79 31.79"><defs><style>.cls-1{fill:#ec8e1d;}</style></defs><title>Amazon0</title><g id="Capa_2" data-name="Capa 2"><g id="Wizard"><path d="M23.7,16.28V5.84C23.7,4,22,0,15.73,0S6.17,3.9,6.17,7.4l5.22.48c1.16-3.51,3.85-3.51,3.85-3.51,2.89,0,2.52,2.11,2.52,4.9-3.46.13-12,1.1-12,8.34,0,7.77,9.81,8.09,13,3.07A32.72,32.72,0,0,0,22,24l4-4S23.7,18.23,23.7,16.28Zm-5.95-.84c0,5.68-6,4.83-6,1.22,0-3.35,3.58-4,6-4.1Z"/><path class="cls-1" d="M27.4,27c-.55.71-5,4.75-12.38,4.75S1.93,26.72.19,24.62c-.48-.55.07-.8.39-.59,5.2,3.16,13.33,8.36,26.43,2.15C27.54,25.92,28,26.33,27.4,27Z"/><path class="cls-1" d="M30.23,27.19a5.91,5.91,0,0,1-1.5,2.2c-.39.32-.67.19-.46-.27s1.37-3.3.9-3.9-2.63-.31-3.41-.23-.92.14-1,0c-.16-.4,1.54-1.1,2.66-1.24s2.91-.06,3.26.4,0,1.92-.46,3.06Z"/></g></g></svg>