<svg xmlns="http://www.w3.org/2000/svg" viewBox="0 0 38.92 30.02"><defs><style>.cls-1{fill:#0072c6;}</style></defs><title>Azure0</title><g id="Capa_2" data-name="Capa 2"><g id="Wizard"><path class="cls-1" d="M9.67,30,27.39,26.9c-.33-.42-.61-.78-.9-1.13l-8.4-10a.51.51,0,0,1-.1-.57q1.94-5.32,3.88-10.64L22.77,2,38.92,30Z"/><path class="cls-1" d="M0,26.67,3.29,21c2.15-3.72,4.29-7.44,6.46-11.15a4.68,4.68,0,0,1,1.08-1.08q4.24-3.58,8.49-7.14L21.27,0c-.27.6-.49,1.09-.72,1.58Q17.79,7.47,15,13.36c-.63,1.35-1.3,2.69-1.93,4Q11,21.87,9,26.35a.5.5,0,0,1-.51.36H.23Z"/></g></g></svg>