<svg width="180" xmlns="http://www.w3.org/2000/svg" viewBox="0 0 102.53 12.28"><defs><style>.cls-1{fill:#f96501;}</style></defs><title>Cloudera0</title><g id="Capa_2" data-name="Capa 2"><g id="Wizard"><path class="cls-1" d="M35.46,6.14a6,6,0,0,1-6.26,6.1A6.08,6.08,0,0,1,23,6.11,6.1,6.1,0,0,1,29.24,0,6,6,0,0,1,35.46,6.14Zm-9.73,0c0,.32,0,.52.06.72a3.47,3.47,0,0,0,3.85,3,3.31,3.31,0,0,0,2.9-2.52,3.85,3.85,0,0,0-1-4.09,3.37,3.37,0,0,0-3.82-.51A3.57,3.57,0,0,0,25.73,6.13Z"/><path class="cls-1" d="M52.55.27c2.38.13,4.7-.27,7,.35a5.52,5.52,0,0,1,4.25,5.7,5.4,5.4,0,0,1-4.7,5.43A38.61,38.61,0,0,1,54,12c-1.48,0-1.48,0-1.48-1.49q0-4.71,0-9.41Zm4.31,9.46.84-.06a3.49,3.49,0,0,0,3.3-3,3.38,3.38,0,0,0-2.57-3.89A12,12,0,0,0,56,2.52c-.84,0-.84,0-.84.81q0,2.44,0,4.89C55.19,9.76,55.19,9.76,56.86,9.73Z"/><path class="cls-1" d="M85.88,8.05l3.34,3.89c-1,0-2,0-2.87,0-.18,0-.38-.2-.52-.36-.83-1-1.65-1.92-2.47-2.89a2,2,0,0,0-1.81-.38.61.61,0,0,0-.17.45c0,.87,0,1.73,0,2.6,0,.5-.18.63-.63.61a12.42,12.42,0,0,0-1.45,0c-.44,0-.54-.16-.54-.56q0-5.28,0-10.56c0-.41.12-.58.54-.57,2,0,3.95,0,5.91.09a3.85,3.85,0,0,1,3.53,5.18,3.44,3.44,0,0,1-2.13,2.23ZM83.11,2.42v.05a11.92,11.92,0,0,0-1.32,0c-.15,0-.39.23-.4.36,0,1,0,1.93,0,2.89,0,.14.21.38.32.38A28.64,28.64,0,0,0,84.94,6a1.57,1.57,0,0,0,1.32-1.69A1.59,1.59,0,0,0,85,2.6,16.27,16.27,0,0,0,83.11,2.42Z"/><path class="cls-1" d="M41,4c0,1.09,0,2.17,0,3.26a2.62,2.62,0,0,0,3.34,2.51,2.55,2.55,0,0,0,1.91-2.43c.06-2,.06-4,.07-6,0-1.08,0-1.08,1.08-1.08C49,.28,49,.28,49,1.86s0,3.34,0,5a5,5,0,0,1-2.56,4.67,5.61,5.61,0,0,1-5.75-.13,5,5,0,0,1-2.34-4.51c-.06-2,0-4.06,0-6.1,0-.4.14-.54.52-.53.54,0,1.09,0,1.63,0s.57.11.56.54c0,1.07,0,2.13,0,3.2Z"/><path class="cls-1" d="M90.11,12l1.81-4.23c1-2.29,2-4.58,2.93-6.88.18-.44.44-.52.9-.59,1.39-.2,2,.38,2.52,1.67,1.22,3.12,2.63,6.17,4,9.25.09.22.17.44.29.76-.86,0-1.63,0-2.41,0a.52.52,0,0,1-.32-.23,2.42,2.42,0,0,1-.19-.44c-.24-.55-.35-1.3-.77-1.58s-1.17-.1-1.77-.1c-.95,0-1.89,0-2.84,0a.59.59,0,0,0-.67.45,13.54,13.54,0,0,1-.61,1.51.77.77,0,0,1-.49.41C91.72,12,91,12,90.11,12Zm8-4.5L96.41,3.35l-.16,0L94.61,7.45Z"/><path class="cls-1" d="M10.48,1.67,8.87,3.36A3.72,3.72,0,0,0,5.49,2.5a3.34,3.34,0,0,0-2,1.3,4,4,0,0,0,.28,5c1.37,1.42,3.23,1.41,5.26,0l1.58,1.63C9.56,11.92,6.76,12.65,4.45,12A6.05,6.05,0,0,1,3.93.46C6.29-.44,9.17.1,10.48,1.67Z"/><path class="cls-1" d="M16.24.29V9.64h5.57c0,.72,0,1.37,0,2,0,.11-.27.29-.41.29-2.44,0-4.87,0-7.31,0-.5,0-.53-.27-.53-.66q0-4.65,0-9.3c0-1.72,0-1.72,1.69-1.72Z"/><path class="cls-1" d="M65.4,11.93c.44-.7.85-1.39,1.29-2.05a.6.6,0,0,1,.44-.22c2.67,0,5.35,0,8,0a1.75,1.75,0,0,1,.29.06c0,.65,0,1.29,0,1.92,0,.12-.37.3-.57.31-1.55,0-3.1,0-4.64,0h-4.4A3.87,3.87,0,0,1,65.4,11.93Z"/><path class="cls-1" d="M65.28.33c.24,0,.39,0,.55,0,2.93,0,5.87,0,8.8,0,.54,0,.77.16.72.72s0,1,0,1.55c-.25,0-.44,0-.63,0-2.47,0-4.94,0-7.42,0a.78.78,0,0,1-.8-.46C66.15,1.54,65.72,1,65.28.33Z"/><path class="cls-1" d="M67.46,4.95c2.06,0,4.06,0,6.07,0a.56.56,0,0,1,.38.39,7.18,7.18,0,0,1,0,1.44c0,.15-.24.4-.38.4-2,0-4,0-6.07,0Z"/></g></g></svg>