<svg xmlns="http://www.w3.org/2000/svg" viewBox="0 0 33.64 33.65"><defs><style>.cls-1{fill:#f37b21;}</style></defs><title>Lambda0</title><g id="Capa_2" data-name="Capa 2"><g id="Wizard"><path class="cls-1" d="M33.64,16.83A16.82,16.82,0,1,1,17.08,0,16.8,16.8,0,0,1,33.64,16.83Zm-3.26,0A13.57,13.57,0,1,0,16.82,30.4,13.53,13.53,0,0,0,30.39,16.83Z"/><path class="cls-1" d="M25.6,21.22,26.44,24l-1.39.42-3.86,1.11c-.23.07-.33,0-.42-.2q-1.75-4.48-3.53-9c0-.11-.1-.21-.17-.36-.09.12-.16.21-.21.3q-2.6,4.09-5.19,8.19a.54.54,0,0,1-.53.29c-.89,0-1.79,0-2.69,0H8.12l.74-1.21q3.4-5.49,6.8-11a.65.65,0,0,0,.07-.64c-.24-.63-.46-1.27-.67-1.91a.38.38,0,0,0-.43-.3H12.24c-.23,0-.31-.07-.31-.31,0-.75,0-1.49,0-2.24,0-.22.06-.3.28-.3h4.6c.22,0,.28.12.35.29l4.28,10.89c.48,1.21,1,2.42,1.42,3.63.09.23.19.28.42.2C24,21.71,24.79,21.48,25.6,21.22Z"/></g></g></svg>