<svg xmlns="http://www.w3.org/2000/svg" viewBox="0 0 169.75 30.16"><defs><style>.cls-1{fill:#fff;stroke:#fff;stroke-miterlimit:10;}</style></defs><title>Ajax0</title><g id="Capa_2" data-name="Capa 2"><g id="Propuesta_2" data-name="Propuesta 2"><path class="cls-1" d="M27.73,27a1.49,1.49,0,0,1,.09.36,1.39,1.39,0,0,1-.27.77,4.23,4.23,0,0,1-.63.74,4.7,4.7,0,0,1-.76.58,1.43,1.43,0,0,1-.72.25q-.45,0-1.06-1.1a21,21,0,0,1-1.19-2.63q-.59-1.53-1.1-3.08t-.83-2.45q-.63-1.84-1.3-3.69T18.5,13.1q-.76-1.75-1.64-3.33a21.42,21.42,0,0,0-1.91-2.88,2.26,2.26,0,0,1-.38-.38.49.49,0,0,0-.43-.16.75.75,0,0,0-.72.47,2.81,2.81,0,0,1-.54.79l-2.16,5L8.44,17.89q-1.15,2.63-2.27,5.24T4,28.18q-.81,1.44-1.89,1.44A2,2,0,0,1,1,29.28,1.16,1.16,0,0,1,.5,28.22v-.31a18.56,18.56,0,0,0,1.13-2.27q.68-1.55,1.51-3.58t1.78-4.39q.94-2.36,1.94-4.72t2-4.57q1-2.2,1.89-3.91A22.84,22.84,0,0,1,12.4,1.67Q13.19.59,13.78.5H14a2.68,2.68,0,0,1,1.82,1,15.87,15.87,0,0,1,2,2.72,40.13,40.13,0,0,1,2,3.89q1,2.18,2,4.52t1.89,4.68q.9,2.34,1.67,4.3T26.78,25a12.78,12.78,0,0,0,.95,1.94ZM14.41,12.74a1.23,1.23,0,0,1,.95.25,2.26,2.26,0,0,1,.72.74V21a.76.76,0,0,1-.2.47,2.44,2.44,0,0,1-.5.45,3.55,3.55,0,0,1-.61.34,1.43,1.43,0,0,1-.54.13.82.82,0,0,1-.77-.29,2.11,2.11,0,0,1-.38-.94,14.61,14.61,0,0,1-.18-1.46q-.07-.85-.16-1.8l0-3.78a2.58,2.58,0,0,1,1-1.12A1.92,1.92,0,0,1,14.41,12.74Z"/><path class="cls-1" d="M67.46.68a1.88,1.88,0,0,1,1.3.54,1.71,1.71,0,0,1,.58,1.31l0,15.12a19.52,19.52,0,0,1-.63,5.6,9.8,9.8,0,0,1-2,3.83,7.17,7.17,0,0,1-3.13,2.09,9.6,9.6,0,0,1-4.09.41,17.91,17.91,0,0,1-1.82-.34A9.64,9.64,0,0,1,55,28.18a7.43,7.43,0,0,1-2.34-2.12,5.21,5.21,0,0,1-.86-3.51,1,1,0,0,1,.52-.79,1.32,1.32,0,0,1,.83-.25q.18,0,.76.74t1.42,1.64a10.91,10.91,0,0,0,1.93,1.64,4.08,4.08,0,0,0,2.32.74,7.14,7.14,0,0,0,2.95-.54A4.35,4.35,0,0,0,64.47,24a9.09,9.09,0,0,0,1.08-3.22,30,30,0,0,0,.34-4.88q0-3.42,0-6.86T66,1.72A.84.84,0,0,1,66.54,1,2.26,2.26,0,0,1,67.46.68Z"/><path class="cls-1" d="M121.77,27a1.49,1.49,0,0,1,.09.36,1.39,1.39,0,0,1-.27.77,4.23,4.23,0,0,1-.63.74,4.7,4.7,0,0,1-.76.58,1.43,1.43,0,0,1-.72.25q-.45,0-1.06-1.1a21,21,0,0,1-1.19-2.63q-.59-1.53-1.1-3.08t-.83-2.45q-.63-1.84-1.3-3.69t-1.44-3.6q-.76-1.75-1.64-3.33A21.42,21.42,0,0,0,109,6.89a2.26,2.26,0,0,1-.38-.38.49.49,0,0,0-.43-.16.75.75,0,0,0-.72.47,2.81,2.81,0,0,1-.54.79l-2.16,5-2.27,5.24q-1.15,2.63-2.27,5.24t-2.16,5q-.81,1.44-1.89,1.44a2,2,0,0,1-1.08-.34,1.16,1.16,0,0,1-.54-1.06v-.31a18.56,18.56,0,0,0,1.13-2.27q.68-1.55,1.51-3.58T99,17.67q.94-2.36,1.94-4.72t2-4.57q1-2.2,1.89-3.91a22.84,22.84,0,0,1,1.69-2.79Q107.24.59,107.82.5H108a2.68,2.68,0,0,1,1.82,1,15.87,15.87,0,0,1,2,2.72,40.13,40.13,0,0,1,2,3.89q1,2.18,2,4.52t1.89,4.68q.9,2.34,1.67,4.3T120.83,25a12.78,12.78,0,0,0,.95,1.94ZM108.45,12.74a1.23,1.23,0,0,1,.95.25,2.26,2.26,0,0,1,.72.74V21a.76.76,0,0,1-.2.47,2.44,2.44,0,0,1-.5.45,3.55,3.55,0,0,1-.61.34,1.43,1.43,0,0,1-.54.13.82.82,0,0,1-.77-.29,2.11,2.11,0,0,1-.38-.94,14.61,14.61,0,0,1-.18-1.46q-.07-.85-.16-1.8l0-3.78a2.58,2.58,0,0,1,1-1.12A1.92,1.92,0,0,1,108.45,12.74Z"/><path class="cls-1" d="M149,3.83a1.67,1.67,0,0,1-.25-1.44,2,2,0,0,1,.79-1.21,1.85,1.85,0,0,1,.85-.29.87.87,0,0,1,.86.34Q153,3.61,154.6,5.9t3.17,4.59q1.57-2.34,3.22-4.66l3.35-4.7a.87.87,0,0,1,.86-.34,1.86,1.86,0,0,1,.85.29,2,2,0,0,1,.79,1.21,1.67,1.67,0,0,1-.25,1.44l-6.75,9.77q2.38,3.51,4.68,7t4.73,7.13a3.61,3.61,0,0,1-.13,1,1.44,1.44,0,0,1-.58.76,2,2,0,0,1-.86.2,1.1,1.1,0,0,1-1-.38l-8.87-12.78L149,29.17a1.1,1.1,0,0,1-1,.38,2,2,0,0,1-.86-.2,1.29,1.29,0,0,1-.52-1,12.44,12.44,0,0,1-.07-1.26q2.43-3.6,4.64-6.84t4.54-6.75Z"/></g></g></svg>