<svg xmlns="http://www.w3.org/2000/svg" viewBox="0 0 182.78 155.78"><defs><style>.cls-1{fill:#fff;}.cls-2{fill:#00d8ff;}</style></defs><title>JustReactBlanco0</title><g id="Capa_2" data-name="Capa 2"><g id="Capa_1-2" data-name="Capa 1"><path class="cls-1" d="M19.91,24.92q0,.31-.67.1a4.27,4.27,0,0,1-1.39-.79,4.8,4.8,0,0,1-1.19-1.46,2.15,2.15,0,0,1-.06-1.93A23.22,23.22,0,0,1,19.26,16,32.51,32.51,0,0,1,23,11.63a43.73,43.73,0,0,1,4.39-3.77A49.5,49.5,0,0,1,32,4.78a38.88,38.88,0,0,1,4.41-2.25,25.93,25.93,0,0,1,3.81-1.33,4,4,0,0,1,2.23-.06,3.06,3.06,0,0,1,1.46.92,3.46,3.46,0,0,1,.73,1.56,5,5,0,0,1,0,1.85,50.55,50.55,0,0,1-1.37,6q-.94,3.31-2.27,6.91t-3,7.36q-1.71,3.76-3.74,7.36T30,40.07a57.33,57.33,0,0,1-4.76,6.08,39.14,39.14,0,0,1-5.1,4.78A21.24,21.24,0,0,1,14.79,54a14.37,14.37,0,0,1-1.87.42q-1.14.19-2.25.27a11.31,11.31,0,0,1-4.93-.62A8.38,8.38,0,0,1,2.43,51.8,9.14,9.14,0,0,1,.58,48.45,13,13,0,0,1,0,44.64,17.58,17.58,0,0,1,4,33.56a15.17,15.17,0,0,1,4.74-3.77,13.5,13.5,0,0,1,6.3-1.44,10,10,0,0,1,2.14.23,6.67,6.67,0,0,1,1.93.73,4.55,4.55,0,0,1,1.41,1.23,3.34,3.34,0,0,1,.62,1.77q0,.23-.21.83a9.91,9.91,0,0,1-.4,1.14,7.07,7.07,0,0,1-.44.89q-.21.35-.33.12a3.69,3.69,0,0,0-.52-1.68,4.14,4.14,0,0,0-1.12-1.19,5.09,5.09,0,0,0-1.52-.73,6,6,0,0,0-1.69-.25,12.53,12.53,0,0,0-3.62.52,13.23,13.23,0,0,0-3.22,1.44,14.3,14.3,0,0,0-2.72,2.2,15.29,15.29,0,0,0-2.12,2.73,13.38,13.38,0,0,0-1.37,3,10.76,10.76,0,0,0-.48,3.16,10.58,10.58,0,0,0,.48,3.14,7.29,7.29,0,0,0,1.58,2.77,7.61,7.61,0,0,0,2.89,1.93,10.66,10.66,0,0,0,9.36-1.06,23.57,23.57,0,0,0,4.79-4,45.24,45.24,0,0,0,4.56-5.82,81.14,81.14,0,0,0,4.2-7q2-3.73,3.74-7.68T36.18,19q1.44-3.81,2.52-7.28t1.77-6.2c.05-.23.1-.45.13-.65a1.07,1.07,0,0,0,0-.54A.47.47,0,0,0,40.3,4a1.13,1.13,0,0,0-.67.08A23.5,23.5,0,0,0,36.26,6q-2,1.33-4.16,3.1T27.77,13a48.54,48.54,0,0,0-3.89,4.2A27.28,27.28,0,0,0,21,21.3,8.08,8.08,0,0,0,19.91,24.92Z"/><path class="cls-1" d="M54.23,18.6a1.3,1.3,0,0,1,1,.06,4.14,4.14,0,0,1,1.23.75,4,4,0,0,1,.92,1.16,1.61,1.61,0,0,1,.15,1.27q-.19.54-.77,1.73t-1.25,2.72q-.67,1.52-1.35,3.14a27.1,27.1,0,0,0-1.06,3,8.4,8.4,0,0,0-.39,2.21q0,.87.69.91H54a6.27,6.27,0,0,0,2.43-1.39,17,17,0,0,0,2.1-2.27,26.91,26.91,0,0,0,1.81-2.66l1.52-2.54a.42.42,0,0,1,.35-.21.62.62,0,0,1,.4.1.66.66,0,0,1,.25.31.53.53,0,0,1-.08.46q-.77,1.19-1.5,2.43t-1.54,2.39q-.81,1.16-1.69,2.23a14.22,14.22,0,0,1-2,2q-.27.23-.69.54a6.09,6.09,0,0,1-.94.56,7.17,7.17,0,0,1-1.12.42A4.62,4.62,0,0,1,52,38a2.45,2.45,0,0,1-1.41-.46,2.65,2.65,0,0,1-.85-1.12,4.91,4.91,0,0,1-.35-1.58A7.41,7.41,0,0,1,49.53,33a13.67,13.67,0,0,1,.35-1.5Q49,32.81,48,34.06a14.81,14.81,0,0,1-2.23,2.25q-.27.23-.69.54a6.06,6.06,0,0,1-.94.56,7.16,7.16,0,0,1-1.12.42,4.62,4.62,0,0,1-1.29.17,2.39,2.39,0,0,1-1.37-.46,2.8,2.8,0,0,1-.87-1.12,4.3,4.3,0,0,1-.35-1.58A8.09,8.09,0,0,1,39.28,33a27.88,27.88,0,0,1,.89-3.27q.62-1.89,1.35-3.87t1.41-3.89Q43.59,20,44,18.6a1.26,1.26,0,0,1,1,.06,4.22,4.22,0,0,1,1.21.75,4,4,0,0,1,.92,1.16,1.61,1.61,0,0,1,.15,1.27q-.19.54-.75,1.73t-1.25,2.72q-.69,1.52-1.35,3.14a29.58,29.58,0,0,0-1,3,8.42,8.42,0,0,0-.38,2.21q0,.87.69.91h.46A6.33,6.33,0,0,0,46,34.18,15.52,15.52,0,0,0,48,32a29.92,29.92,0,0,0,1.77-2.54q.83-1.33,1.52-2.48.81-2.27,1.64-4.51A40,40,0,0,0,54.23,18.6Z"/><path class="cls-1" d="M58,33.51a5.64,5.64,0,0,1,.67-2.64,5.38,5.38,0,0,1,1.67-2q1.23-2,2.48-3.91t2.75-3.91l.89-1.27q.42-.62.89-1.25a13.21,13.21,0,0,1,1.08-1.29q.62-.65,1.5-1.43.42.19,1,.54a7.19,7.19,0,0,1,1.12.77,2.9,2.9,0,0,1,.71.83.52.52,0,0,1-.17.71q-.46.42-.71.69t-.44.52c-.13.17-.26.35-.38.56s-.31.48-.54.81a8.24,8.24,0,0,0-1.14,2.56,12,12,0,0,0-.35,2.71q0,1.39.1,2.79t.19,2.79A6.79,6.79,0,0,1,69,34.66a5.22,5.22,0,0,1-1.25,2,5.54,5.54,0,0,1-2,1.23,5.94,5.94,0,0,1-2.45.35,8.21,8.21,0,0,1-2.39-.52,5.07,5.07,0,0,1-1.66-1,4,4,0,0,1-1-1.44A4.72,4.72,0,0,1,58,33.51Zm8.63-11.63A29.61,29.61,0,0,0,64.35,25l-2.08,3.31a2,2,0,0,1,.54.08l.58.19a5.88,5.88,0,0,1,.37.62q.25.46.48,1a8.44,8.44,0,0,1,.37,1q.13.44,0,.56a2.22,2.22,0,0,0-1.12-.48,3.37,3.37,0,0,0-1.29.06,4.68,4.68,0,0,0-1.21.48,2.76,2.76,0,0,0-.92.83,2.18,2.18,0,0,0-.38,1.14,2.16,2.16,0,0,0,.42,1.33,2.85,2.85,0,0,0,1.21,1.14,3.82,3.82,0,0,0,1.48.4,2.51,2.51,0,0,0,1.39-.21,2.59,2.59,0,0,0,1-.83,3.61,3.61,0,0,0,.56-1.25,6.26,6.26,0,0,0,.17-1.48,19.15,19.15,0,0,0-.17-2.5,25.78,25.78,0,0,1-.21-2.7,17.66,17.66,0,0,1,.15-2.83A9.1,9.1,0,0,1,66.63,21.87Z"/><path class="cls-1" d="M74.14,18.72a.7.7,0,0,1-.46,0,.47.47,0,0,1-.27-.25.5.5,0,0,1,0-.38.76.76,0,0,1,.31-.37,36.66,36.66,0,0,1,5.78-3q1.12-2.31,1.87-4.27a35,35,0,0,0,1.17-3.58,1.3,1.3,0,0,1,1,.06,4.38,4.38,0,0,1,1.23.73,3.77,3.77,0,0,1,.92,1.14A1.49,1.49,0,0,1,85.84,10q-.15.42-.52,1.23t-.91,1.89a30.55,30.55,0,0,1,7.78-.69,1.39,1.39,0,0,1,.06.69,2.23,2.23,0,0,1-.23.71,1.67,1.67,0,0,1-.44.54.7.7,0,0,1-.54.17,28.71,28.71,0,0,0-3.79,0,27.68,27.68,0,0,0-3.83.56q-.42.89-.89,1.77t-.89,1.73l-1,2q-.73,1.44-1.64,3.29t-1.79,3.89q-.89,2-1.44,3.74a12,12,0,0,0-.64,2.81q-.08,1.12.65,1.16h.46a6.43,6.43,0,0,0,2.45-1.39,15.45,15.45,0,0,0,2.1-2.27,29.32,29.32,0,0,0,1.79-2.66q.83-1.39,1.56-2.54a.41.41,0,0,1,.33-.21.58.58,0,0,1,.39.1.66.66,0,0,1,.25.31.53.53,0,0,1-.08.46q-.77,1.19-1.5,2.43T82,32.12q-.79,1.16-1.69,2.23a15.1,15.1,0,0,1-2,2q-.27.23-.69.54a6,6,0,0,1-.94.56,7.14,7.14,0,0,1-1.12.42,4.61,4.61,0,0,1-1.29.17,2.48,2.48,0,0,1-1.37-.44,2.51,2.51,0,0,1-.85-1.1,5,5,0,0,1-.35-1.6A7.5,7.5,0,0,1,71.86,33a22.91,22.91,0,0,1,1-4.14q.69-2,1.58-4t1.93-3.95q1-2,2-4l.12-.23q-1.08.42-2.18.92T74.14,18.72Z"/><path class="cls-1" d="M60.1,48.54q.22-.32,1.08.05a7.36,7.36,0,0,1,3.21,2.94,2.24,2.24,0,0,1,.24,1.92q-2.38,2.86-4.7,6.29T55.46,66.9q-2.16,3.73-4.13,7.59t-3.64,7.59h.92a23.51,23.51,0,0,0,6.18-.89,32.81,32.81,0,0,0,6.45-2.54,37.21,37.21,0,0,0,6.07-3.94,32.58,32.58,0,0,0,5.13-5.08A24.57,24.57,0,0,0,76,63.69a17.56,17.56,0,0,0,1.38-6.56A17.34,17.34,0,0,0,77,53.7a7.22,7.22,0,0,0-1.84-3.46,10.6,10.6,0,0,0-4.32-2.62,22.8,22.8,0,0,0-7.72-1,15.81,15.81,0,0,0-5.59,1.19,28.77,28.77,0,0,0-5.59,3,42.57,42.57,0,0,0-5.35,4.37,58.57,58.57,0,0,0-4.86,5.26,67.28,67.28,0,0,0-4.16,5.67,49,49,0,0,0-3.19,5.59,33.06,33.06,0,0,0-2,5,11.85,11.85,0,0,0-.57,4q.05,1-.76.78a4,4,0,0,1-1.73-1.3,8.44,8.44,0,0,1-1.51-2.67,5.31,5.31,0,0,1-.11-3.35,39.88,39.88,0,0,1,4.81-10.66,43.69,43.69,0,0,1,7.94-9.34,41.45,41.45,0,0,1,10.37-6.75A32.81,32.81,0,0,1,63,44.54a26.13,26.13,0,0,1,9.21.19,15.46,15.46,0,0,1,6.18,2.78A11.24,11.24,0,0,1,81.81,52a13.45,13.45,0,0,1,1.08,5.26,18.58,18.58,0,0,1-1.4,7.21,24.4,24.4,0,0,1-3.78,6.24,32.33,32.33,0,0,1-5.51,5.21,42.75,42.75,0,0,1-6.53,4,41.7,41.7,0,0,1-6.88,2.73A36.86,36.86,0,0,1,52.17,84q1,1.46,2.32,3.37t3.05,3.89A36.83,36.83,0,0,0,61.29,95a23,23,0,0,0,4.43,3,18.29,18.29,0,0,0,5,1.75,13.68,13.68,0,0,0,5.59-.13q.38,0,.24.78a6.38,6.38,0,0,1-.65,1.78,8.72,8.72,0,0,1-1.3,1.86,2.7,2.7,0,0,1-1.59,1,16.62,16.62,0,0,1-8-2.32,26.77,26.77,0,0,1-6.16-5.16A40.91,40.91,0,0,1,54.14,91q-2.08-3.59-3.86-6.83l-.73,0a2.75,2.75,0,0,1-.67,0,12.09,12.09,0,0,1-2-.16q-2.11,5-3.46,9.31a47.05,47.05,0,0,0-1.78,7.59q-.05.43-.54-.05a9.18,9.18,0,0,1-1-1.27,13.57,13.57,0,0,1-1-1.65,2.57,2.57,0,0,1-.38-1.3,30.45,30.45,0,0,1,1-6.32,71.84,71.84,0,0,1,2.48-7.67,10.35,10.35,0,0,1-3.59-3,8.26,8.26,0,0,1-1.59-4q-.27-1,1.35-1.73a14.11,14.11,0,0,0,1.92,4.45,8.59,8.59,0,0,0,2.62,2.51q1.73-4.32,3.89-8.85t4.45-8.8q2.29-4.26,4.59-8T60.1,48.54Z"/><path class="cls-1" d="M99.41,73.43A22.33,22.33,0,0,1,93,80.69a26.27,26.27,0,0,1-8.69,4.18,7.89,7.89,0,0,0,.11,1.84A6.92,6.92,0,0,0,85,88.44a4.43,4.43,0,0,0,1,1.4,3.44,3.44,0,0,0,1.62.81,6.14,6.14,0,0,0,2.73-.08,10.79,10.79,0,0,0,3.24-1.4,20.8,20.8,0,0,0,3.48-2.78,28.57,28.57,0,0,0,3.51-4.21q.86-1.24,1.57-2.43t1.3-2.27a.73.73,0,0,1,.51-.3.82.82,0,0,1,.54.14.92.92,0,0,1,.35.43.74.74,0,0,1-.11.65Q104,79.59,103.14,81t-1.92,2.94Q100.17,85.47,98.9,87A27.22,27.22,0,0,1,96.06,90a14,14,0,0,1-3,2.13,12.39,12.39,0,0,1-2.75,1,12,12,0,0,1-2.32.32l-1.67,0a8,8,0,0,1-5.72-1.94,7.46,7.46,0,0,1-2.21-5.29,15,15,0,0,1,1.11-6.13,29,29,0,0,1,3.92-6.61A18.86,18.86,0,0,1,85.7,71a23.9,23.9,0,0,1,3.24-2.46,18.34,18.34,0,0,1,3.78-1.84,11.09,11.09,0,0,1,4-.65,4.13,4.13,0,0,1,2.24.59,3.49,3.49,0,0,1,1.38,1.59,4.26,4.26,0,0,1,.24,2.32A7.24,7.24,0,0,1,99.41,73.43Zm-14.79,9.5a.48.48,0,0,0-.05.22,22.92,22.92,0,0,0,7.88-4,20.78,20.78,0,0,0,5.67-6.83,3.54,3.54,0,0,0,.38-2.67q-.38-1.11-1.89-.84a9.58,9.58,0,0,0-4.27,2.05,20.54,20.54,0,0,0-3.56,3.73A26.66,26.66,0,0,0,86.13,79,21.27,21.27,0,0,0,84.62,82.93Z"/><path class="cls-1" d="M124.41,73.49a.72.72,0,0,1-.27.59,1.06,1.06,0,0,1-.57.24.61.61,0,0,1-.51-.19.88.88,0,0,1-.22-.65,13.7,13.7,0,0,1-.19-1.38,6.27,6.27,0,0,0-.38-1.62,3.57,3.57,0,0,0-.95-1.38,2.9,2.9,0,0,0-1.89-.65,6.49,6.49,0,0,0-2.94.59,11.08,11.08,0,0,0-2.73,1.78,17.89,17.89,0,0,0-2.43,2.62,29.23,29.23,0,0,0-3.64,6.26,24.52,24.52,0,0,0-1.05,2.94,14.31,14.31,0,0,0-.43,2.21,6.6,6.6,0,0,0,.11,2.4,2.77,2.77,0,0,0,1.13,1.7,3.42,3.42,0,0,0,2.7.16,5.84,5.84,0,0,0,2.11-1.24,25.83,25.83,0,0,0,2.51-2.4,37.34,37.34,0,0,0,2.4-2.89Q118.31,81.1,119,80q.59-1.57,1-3a15.49,15.49,0,0,0,.51-2.54,1.78,1.78,0,0,1,1.46.11,6.32,6.32,0,0,1,1.73,1.08,5.6,5.6,0,0,1,1.3,1.62,2.26,2.26,0,0,1,.22,1.78l-.78,1.94q-.46,1.13-.92,2.32t-.86,2.35a11.39,11.39,0,0,0-.54,2.11,4.37,4.37,0,0,0,0,1.54.76.76,0,0,0,.73.65h.65A9,9,0,0,0,126.92,88a22.86,22.86,0,0,0,3-3.19A37.79,37.79,0,0,0,132.43,81l2.13-3.56a.59.59,0,0,1,.49-.3.87.87,0,0,1,.57.14.92.92,0,0,1,.35.43.75.75,0,0,1-.11.65q-1.08,1.67-2.11,3.4t-2.16,3.35q-1.13,1.62-2.4,3.13A21.16,21.16,0,0,1,126.41,91q-.38.32-.95.76a8.72,8.72,0,0,1-1.3.81,8.57,8.57,0,0,1-1.57.62,5.39,5.39,0,0,1-1.81.19,4.89,4.89,0,0,1-2.46-.76A4.14,4.14,0,0,1,116.91,91a5.63,5.63,0,0,1-.51-2.32,9,9,0,0,1,.35-2.65q-1.08,1.35-2.29,2.65A23,23,0,0,1,111.94,91a13.08,13.08,0,0,1-2.65,1.65,5.22,5.22,0,0,1-2.65.51A6.15,6.15,0,0,1,103.06,92a6.09,6.09,0,0,1-1.86-2.35,8,8,0,0,1-.67-2.81,11.32,11.32,0,0,1,.08-2.43,18,18,0,0,1,1.19-4.16,26.6,26.6,0,0,1,2.38-4.51,30,30,0,0,1,3.38-4.27,21.23,21.23,0,0,1,4.1-3.4,15.1,15.1,0,0,1,4.56-1.94,9.89,9.89,0,0,1,4.86.08,3.84,3.84,0,0,1,1.75,1.05A5.25,5.25,0,0,1,123.87,69a8.29,8.29,0,0,1,.49,2.16A16.59,16.59,0,0,1,124.41,73.49Z"/><path class="cls-1" d="M158,78.4q-.76,1.19-1.62,2.59t-1.92,2.94q-1.05,1.54-2.32,3.08A27.22,27.22,0,0,1,149.36,90a14,14,0,0,1-3,2.13,12.39,12.39,0,0,1-2.75,1,12,12,0,0,1-2.32.32l-1.67,0a8,8,0,0,1-5.72-1.94,7.46,7.46,0,0,1-2.21-5.29,15,15,0,0,1,1.11-6.13,29,29,0,0,1,3.92-6.61A18.86,18.86,0,0,1,139,71a23.9,23.9,0,0,1,3.24-2.46A18.34,18.34,0,0,1,146,66.74a11.09,11.09,0,0,1,4-.65,3.86,3.86,0,0,1,2.19.59,3.44,3.44,0,0,1,1.3,1.57,4.42,4.42,0,0,1,.24,2.27,6.42,6.42,0,0,1-1,2.65.7.7,0,0,1-1,.24.81.81,0,0,1-.38-1,3.69,3.69,0,0,0,.46-2.73q-.35-1.11-1.92-.84a9.58,9.58,0,0,0-4.27,2.05,20.54,20.54,0,0,0-3.56,3.73A26.66,26.66,0,0,0,139.42,79a21.27,21.27,0,0,0-1.51,4,8.15,8.15,0,0,0-.27,2.19,8.47,8.47,0,0,0,.32,2.35,5.54,5.54,0,0,0,1,2,3.58,3.58,0,0,0,1.94,1.19,6.14,6.14,0,0,0,2.73-.08,10.79,10.79,0,0,0,3.24-1.4,20.8,20.8,0,0,0,3.48-2.78,28.57,28.57,0,0,0,3.51-4.21q.86-1.24,1.57-2.43t1.3-2.27a.73.73,0,0,1,.51-.3.82.82,0,0,1,.54.14.92.92,0,0,1,.35.43A.74.74,0,0,1,158,78.4Z"/><path class="cls-1" d="M157.35,66.36a1,1,0,0,1-.65,0,.66.66,0,0,1-.38-.35.7.7,0,0,1,0-.54,1.06,1.06,0,0,1,.43-.51,51.37,51.37,0,0,1,8.1-4.27q1.56-3.24,2.62-6a49,49,0,0,0,1.65-5,1.83,1.83,0,0,1,1.46.08,6.12,6.12,0,0,1,1.73,1,5.28,5.28,0,0,1,1.3,1.59,2.1,2.1,0,0,1,.16,1.78q-.22.59-.73,1.73t-1.27,2.65a42.8,42.8,0,0,1,10.91-1,1.93,1.93,0,0,1,.08,1,3.11,3.11,0,0,1-.32,1,2.33,2.33,0,0,1-.62.76,1,1,0,0,1-.76.24,40.39,40.39,0,0,0-5.32,0,38.91,38.91,0,0,0-5.37.78q-.59,1.24-1.24,2.48t-1.24,2.43L166.47,69q-1,2-2.29,4.62t-2.51,5.45q-1.24,2.86-2,5.24a16.84,16.84,0,0,0-.89,3.94q-.11,1.57.92,1.62h.65A9,9,0,0,0,163.74,88a21.7,21.7,0,0,0,2.94-3.19A41.06,41.06,0,0,0,169.2,81q1.16-1.94,2.19-3.56a.58.58,0,0,1,.46-.3.82.82,0,0,1,.54.14.92.92,0,0,1,.35.43.74.74,0,0,1-.11.65q-1.08,1.67-2.11,3.4t-2.13,3.35q-1.11,1.62-2.37,3.13A21.17,21.17,0,0,1,163.23,91q-.38.32-1,.76a8.46,8.46,0,0,1-1.32.78,10,10,0,0,1-1.57.59,6.48,6.48,0,0,1-1.81.24,3.47,3.47,0,0,1-1.92-.62,3.52,3.52,0,0,1-1.19-1.54A7,7,0,0,1,154,89a10.51,10.51,0,0,1,.19-2.67,32.09,32.09,0,0,1,1.4-5.8q1-2.84,2.21-5.62t2.7-5.53q1.46-2.75,2.86-5.56l.16-.32q-1.51.59-3.05,1.3T157.35,66.36Z"/><path class="cls-2" d="M128.15,48.76l-.28.26a31,31,0,0,1-5.51,4.22,17.31,17.31,0,0,1-4.69,2,8.9,8.9,0,0,1-3.08.26A5.26,5.26,0,0,1,111,53.67a8,8,0,0,1-1.55-3,15.21,15.21,0,0,1-.56-3.36,23.16,23.16,0,0,1,.08-3.69,34.8,34.8,0,0,1,.84-4.92l.06-.27a.32.32,0,0,0,0-.08l-.3-.1a31.15,31.15,0,0,1-6.35-2.63,17.58,17.58,0,0,1-4.11-3.06,9,9,0,0,1-1.83-2.63,5.28,5.28,0,0,1,.1-4.62,9.06,9.06,0,0,1,1.95-2.58,17.85,17.85,0,0,1,4-2.82,32.61,32.61,0,0,1,6.13-2.44l.45-.14a2.17,2.17,0,0,0,0-.25,37.38,37.38,0,0,1-.73-3.79A25,25,0,0,1,109,7.48a12.51,12.51,0,0,1,.87-3.66,6.83,6.83,0,0,1,1.46-2.25,5.1,5.1,0,0,1,3-1.45,9,9,0,0,1,3.92.42A19.44,19.44,0,0,1,123,2.87a34,34,0,0,1,4.81,3.81l.24.22.26-.24a32.12,32.12,0,0,1,6-4.6A16.61,16.61,0,0,1,138.41.32,9,9,0,0,1,141,0a5.23,5.23,0,0,1,4.27,2.24,9,9,0,0,1,1.39,3.13,16.1,16.1,0,0,1,.45,3.1,29,29,0,0,1-.58,7.15c-.1.52-.22,1-.33,1.55,0,.05,0,.11,0,.19l.34.11a33.84,33.84,0,0,1,6,2.37,18.63,18.63,0,0,1,4.18,2.87,9.56,9.56,0,0,1,1.77,2.17,5.77,5.77,0,0,1,.8,2.38,5.41,5.41,0,0,1-.6,3,9.09,9.09,0,0,1-1.74,2.36,17.42,17.42,0,0,1-3.81,2.82,32.23,32.23,0,0,1-6.41,2.7l-.32.11-.06.05.07.3a30.45,30.45,0,0,1,.9,7.29,16.39,16.39,0,0,1-.71,4.93,8.8,8.8,0,0,1-1.17,2.42,5.34,5.34,0,0,1-4.44,2.36,10.08,10.08,0,0,1-3.75-.68,21.12,21.12,0,0,1-5-2.75,34.61,34.61,0,0,1-3.66-3Zm-.87-10.89c2.49,0,4.35-.06,6.21-.19a.49.49,0,0,0,.43-.24A87.54,87.54,0,0,0,139.33,28a.48.48,0,0,0,0-.49c-.69-1.28-1.35-2.58-2.06-3.85-1-1.89-2.18-3.72-3.39-5.52a.45.45,0,0,0-.37-.24q-2.5-.18-5-.19-2.91,0-5.8.18a.67.67,0,0,0-.58.33,78.53,78.53,0,0,0-5.34,9.26.62.62,0,0,0,0,.62,78.39,78.39,0,0,0,5.38,9.3.61.61,0,0,0,.54.31Zm-16.66-2.09c0-.1.07-.19.1-.29a63.52,63.52,0,0,1,2.86-7.41.62.62,0,0,0,0-.57,62.32,62.32,0,0,1-2.84-7.36c0-.08-.06-.15-.09-.24l-.17,0a29.58,29.58,0,0,0-6.3,2.54,14.09,14.09,0,0,0-3.26,2.4,6.15,6.15,0,0,0-1.19,1.64,2.68,2.68,0,0,0,0,2.36,5.8,5.8,0,0,0,.85,1.33,12.63,12.63,0,0,0,3.1,2.59,27.33,27.33,0,0,0,6.76,2.94ZM112.49,39c0,.12-.07.21-.08.3-.14.66-.3,1.32-.42,2a23.8,23.8,0,0,0-.42,6.14,11.47,11.47,0,0,0,.5,2.7,5.42,5.42,0,0,0,.88,1.72,2.62,2.62,0,0,0,1.74,1,5.72,5.72,0,0,0,2-.1,12.79,12.79,0,0,0,3.42-1.28A27.27,27.27,0,0,0,126.17,47l.1-.12-.2-.23C125,45.47,124,44.29,123,43c-.67-.86-1.32-1.75-2-2.62a.45.45,0,0,0-.35-.22c-.74-.06-1.48-.14-2.21-.22-1.92-.21-3.82-.52-5.7-.91Zm31.22-.12-.32.06a59.08,59.08,0,0,1-6.19,1l-1.74.18a.45.45,0,0,0-.36.21,62.42,62.42,0,0,1-5,6.31,1.93,1.93,0,0,0-.13.17l.13.14a32.23,32.23,0,0,0,3.65,3A18.42,18.42,0,0,0,138,52.36a7.77,7.77,0,0,0,2.79.54,2.77,2.77,0,0,0,2.43-1.32A6.52,6.52,0,0,0,144,50a13.78,13.78,0,0,0,.59-4.14,26.9,26.9,0,0,0-.63-5.82C143.9,39.68,143.81,39.3,143.71,38.89ZM126.22,8.75a2.79,2.79,0,0,1-.23-.17,32.52,32.52,0,0,0-3.61-3,19.3,19.3,0,0,0-4.23-2.31,8,8,0,0,0-3.09-.61A2.68,2.68,0,0,0,112.7,4c-.08.13-.16.27-.23.41a7.16,7.16,0,0,0-.57,1.59,16.6,16.6,0,0,0-.31,5,31.66,31.66,0,0,0,.82,5.15c0,.14.08.28.12.43l.24,0c1.33-.25,2.65-.52,4-.73s2.48-.33,3.72-.47a.79.79,0,0,0,.63-.36A61.9,61.9,0,0,1,126,9Zm17.34,7.94a1.23,1.23,0,0,0,.06-.15c.11-.48.22-1,.31-1.44a26,26,0,0,0,.52-6.71,12.34,12.34,0,0,0-.51-2.89,5.49,5.49,0,0,0-1-1.89,2.45,2.45,0,0,0-1.52-.9,5.34,5.34,0,0,0-2.07.1,12.74,12.74,0,0,0-3.32,1.32,28.85,28.85,0,0,0-6,4.54.91.91,0,0,0-.1.13l.13.16c1.05,1.15,2.06,2.33,3,3.57.67.87,1.32,1.77,2,2.65a.46.46,0,0,0,.35.23c.66.06,1.33.14,2,.22q2.36.28,4.69.76Zm2,19,.21-.05a30.77,30.77,0,0,0,5.25-2.1,16.62,16.62,0,0,0,3.69-2.5A7.13,7.13,0,0,0,156.26,29a2.69,2.69,0,0,0,0-2.68,6.31,6.31,0,0,0-.92-1.25,13.54,13.54,0,0,0-3.21-2.45A29.53,29.53,0,0,0,145.64,20l-.17,0-.05,0-.07.18a60.76,60.76,0,0,1-2.84,7.26.6.6,0,0,0,0,.57,61.22,61.22,0,0,1,3,7.37C145.49,35.47,145.52,35.55,145.56,35.65Zm-2.61.69a35.56,35.56,0,0,0-2.1-5.44c-.6,1.07-1.18,2.16-1.79,3.22s-1.25,2.11-1.9,3.21A55.26,55.26,0,0,0,142.95,36.34Zm-14.83,8.6.12-.11c1.18-1.31,2.28-2.67,3.33-4.09.06-.08.11-.17.17-.25s0,0,0,0l0,0c-2.43.1-4.86.09-7.36,0C125.57,42,126.8,43.52,128.12,44.94ZM115.26,31a34.82,34.82,0,0,0-2,5.5,55.41,55.41,0,0,0,5.72.92C117.63,35.26,116.4,33.15,115.26,31Zm9.13-15.89,0,.07,1.8-.05,1.83,0,1.81,0,1.81.05,0-.06a56.43,56.43,0,0,0-3.64-4.39C126.75,12.1,125.54,13.56,124.39,15.07Zm16.44,9.58a42,42,0,0,0,2-5.36,37.3,37.3,0,0,0-5.65-1C138.48,20.38,139.68,22.47,140.84,24.65Zm-27.59-5.41a56.78,56.78,0,0,0,2,5.36l.07,0c1.11-2.12,2.31-4.18,3.57-6.21,0,0,0,0,0,0l0,0C117,18.51,115.11,18.82,113.24,19.24Z"/><ellipse class="cls-2" cx="128.03" cy="27.73" rx="5.57" ry="5.57" transform="translate(100.07 155.7) rotate(-89.89)"/><path class="cls-1" d="M6.66,125.47v.63H1.76v4.59h4.9v.63H1.76v4.59h4.9v.63H1.13v-11Z"/><path class="cls-1" d="M26.42,136.65A5.67,5.67,0,1,1,30.49,127a5.68,5.68,0,0,1-2.75,9.54,5.56,5.56,0,0,1,1.43.7,3.53,3.53,0,0,0,1.19.4q.84,0,.91-.94h.63a1.44,1.44,0,0,1-1.39,1.44,3.54,3.54,0,0,1-1.86-.52,4.25,4.25,0,0,0-1.53-.55,1.28,1.28,0,0,0-.78.27,1.16,1.16,0,0,0-.35.55,3.33,3.33,0,0,0-.1.4h-.62Q25.47,136.9,26.42,136.65Zm.06-10.7A5,5,0,1,0,30,127.42,4.85,4.85,0,0,0,26.48,125.94Z"/><path class="cls-1" d="M52.9,125.47h.63v7.94a3.65,3.65,0,0,1-1.05,2.15A3.61,3.61,0,0,1,46.31,133v-7.54h.63V133a3,3,0,0,0,6,0Z"/><path class="cls-1" d="M68.77,125.47v11h-.62v-11Z"/><path class="cls-1" d="M84,132.69v3.83H83.4v-11h2.9a3.65,3.65,0,0,1,2.15,1.05,3.61,3.61,0,0,1-2.55,6.16Zm0-6.59v6H85.9a3,3,0,1,0,0-6Z"/><path class="cls-1" d="M113,127a5.67,5.67,0,1,1-4-1.66A5.46,5.46,0,0,1,113,127Zm-4-1a5,5,0,1,0,3.56,1.48A4.85,4.85,0,0,0,109,125.94Z"/><path class="cls-1" d="M147.62,125.47a5.75,5.75,0,0,1,4.23,1.52,5.67,5.67,0,0,1,0,8,5.76,5.76,0,0,1-4.23,1.52h-2v-11Zm-1.42.65v9.76h1.41a5.18,5.18,0,0,0,3.76-1.33,5,5,0,0,0,0-7.11,5.2,5.2,0,0,0-3.76-1.32Z"/><path class="cls-1" d="M173.18,125.47v.63h-4.9v4.59h4.9v.63h-4.9v4.59h4.9v.63h-5.52v-11Z"/><path class="cls-1" d="M5.91,144.7v.62H1.74v4.54H5.91v.62H1.74v5.16H1.12V144.7Z"/><path class="cls-1" d="M22.53,151.85h-2v3.79h-.62V144.7h2.87a3.62,3.62,0,0,1,2.13,1,3.59,3.59,0,0,1-1.66,6l2.52,3.89H25Zm-2-6.52v5.9h1.86a2.95,2.95,0,1,0,0-5.9Z"/><path class="cls-1" d="M49.16,146.19a5.61,5.61,0,1,1-4-1.64A5.41,5.41,0,0,1,49.16,146.19Zm-4-1a5,5,0,1,0,3.53,1.46A4.8,4.8,0,0,0,45.19,145.17Z"/><path class="cls-1" d="M65.59,144.7l7.27,10.19V144.7h.62v10.94h-1l-7.1-10v10h-.62V144.7Z"/><path class="cls-1" d="M90.64,145.32v10.32H90V145.32H87.26v-.62h6.15v.62Z"/><path class="cls-1" d="M106.71,151.29h3.87v.62h-3.87Z"/><path class="cls-1" d="M130,144.7v.62h-4.85v4.54H130v.62h-4.85V155H130v.62H124.5V144.7Z"/><path class="cls-1" d="M145.14,144.7l7.27,10.19V144.7H153v10.94h-1l-7.1-10v10h-.62V144.7Z"/><path class="cls-1" d="M169.45,144.7a5.7,5.7,0,0,1,4.19,1.51,5.61,5.61,0,0,1,0,7.93,5.71,5.71,0,0,1-4.19,1.5h-2V144.7Zm-1.41.64V155h1.4a5.13,5.13,0,0,0,3.72-1.32,5,5,0,0,0,0-7,5.15,5.15,0,0,0-3.72-1.31Z"/></g></g></svg>