<svg xmlns="http://www.w3.org/2000/svg" viewBox="0 0 78.38 26.9"><defs><style>.cls-1{fill:#fff;}.cls-2{fill:#c66929;}</style></defs><title>LogoWoombat0</title><g id="Capa_2" data-name="Capa 2"><g id="Propuesta_2" data-name="Propuesta 2"><path class="cls-1" d="M7.08,9.07q-.13.76-.62,2.66L4.75,18.29H3.38L0,7.24H1.35l1.9,6.48q.45,1.56.77,2.81H4q.16-.77.36-1.49l.34-1.3,1.68-6.5H7.77l1.67,6.5q.61,2.34.69,2.79h0q.29-1.16.77-2.81l1.9-6.48h1.35l-3.39,11H9.43L7.73,11.72q-.47-1.83-.61-2.66Z"/><path class="cls-1" d="M49.3,18.29H48v-5a3,3,0,0,0-.11-.87,1.54,1.54,0,0,0-.32-.59,1.26,1.26,0,0,0-.5-.34,1.9,1.9,0,0,0-.66-.11,2.23,2.23,0,0,0-1.25.37,3.7,3.7,0,0,0-1,1v5.57H42.9V10.44h1l.25,1.09h0a4.49,4.49,0,0,1,.47-.51,3,3,0,0,1,.56-.41,2.83,2.83,0,0,1,.68-.28,3.13,3.13,0,0,1,.81-.1,2.4,2.4,0,0,1,1.45.42A2.72,2.72,0,0,1,49,11.81h0a4.17,4.17,0,0,1,1.19-1.15,2.9,2.9,0,0,1,1.56-.42,3.63,3.63,0,0,1,.88.12,2.21,2.21,0,0,1,.85.43,2.34,2.34,0,0,1,.65.85,3.31,3.31,0,0,1,.26,1.4v5.25H53.16v-5a3,3,0,0,0-.11-.87,1.54,1.54,0,0,0-.32-.59,1.26,1.26,0,0,0-.5-.34,1.9,1.9,0,0,0-.66-.11,2.25,2.25,0,0,0-1.25.37,3.68,3.68,0,0,0-1,1Z"/><path class="cls-1" d="M63.94,14.23a5.46,5.46,0,0,1-.3,1.9,3.93,3.93,0,0,1-.78,1.33,3.12,3.12,0,0,1-1.11.78,3.4,3.4,0,0,1-1.3.26,2.81,2.81,0,0,1-.89-.13,2.76,2.76,0,0,1-.65-.31,2.16,2.16,0,0,1-.43-.36,2.26,2.26,0,0,1-.23-.29h0l-.27.88H57v-12h1.28v4.85h0a3,3,0,0,1,1-.69,3.14,3.14,0,0,1,1.28-.25,3.78,3.78,0,0,1,.71.07,3.09,3.09,0,0,1,.76.26,3.37,3.37,0,0,1,.72.48,3,3,0,0,1,.61.74,4,4,0,0,1,.42,1A5.62,5.62,0,0,1,63.94,14.23Zm-1.34.1a4.38,4.38,0,0,0-.22-1.51,2.4,2.4,0,0,0-.56-.91,1.9,1.9,0,0,0-.73-.45,2.54,2.54,0,0,0-.78-.12,2.59,2.59,0,0,0-1.12.25,3.37,3.37,0,0,0-.93.64v4.1a3,3,0,0,0,.3.34A2.5,2.5,0,0,0,59,17a2.83,2.83,0,0,0,.57.27,2.09,2.09,0,0,0,.7.11,2.16,2.16,0,0,0,1-.22,2,2,0,0,0,.73-.63,2.94,2.94,0,0,0,.44-1A4.88,4.88,0,0,0,62.6,14.33Z"/><path class="cls-1" d="M70.56,17.42h0a2.57,2.57,0,0,1-.4.39,2.87,2.87,0,0,1-.55.35,3.41,3.41,0,0,1-.69.24,3.33,3.33,0,0,1-.79.09,3.09,3.09,0,0,1-1-.17,2.28,2.28,0,0,1-.82-.5,2.23,2.23,0,0,1-.53-.8A2.82,2.82,0,0,1,65.51,16a2.5,2.5,0,0,1,.21-1,2.22,2.22,0,0,1,.59-.78,2.67,2.67,0,0,1,.91-.5,3.78,3.78,0,0,1,1.18-.17,6.53,6.53,0,0,1,1.13.11,5.9,5.9,0,0,1,.92.25h0v-.54a3.53,3.53,0,0,0,0-.57,1.46,1.46,0,0,0-.14-.44,1.67,1.67,0,0,0-.69-.66,2.64,2.64,0,0,0-1.27-.26,5.37,5.37,0,0,0-1.12.11,7,7,0,0,0-1,.31V10.7a3.34,3.34,0,0,1,.47-.19,5.46,5.46,0,0,1,.57-.15,6,6,0,0,1,.63-.09q.33,0,.66,0a4,4,0,0,1,1.94.42,2.51,2.51,0,0,1,1.09,1.11,2.25,2.25,0,0,1,.18.58,4.23,4.23,0,0,1,.05.7v5.23H70.7Zm-.07-2.58q-.35-.1-.84-.19a6.32,6.32,0,0,0-1.07-.1,2.08,2.08,0,0,0-1.27.35A1.25,1.25,0,0,0,66.85,16a1.62,1.62,0,0,0,.12.64,1.22,1.22,0,0,0,.32.45,1.3,1.3,0,0,0,.48.26,1.94,1.94,0,0,0,.59.09,2.37,2.37,0,0,0,.76-.12,3.25,3.25,0,0,0,.63-.28,3.45,3.45,0,0,0,.47-.33l.28-.26Z"/><path class="cls-1" d="M78.38,18.3a2.68,2.68,0,0,1-.5.12,5.47,5.47,0,0,1-.81.07A3.38,3.38,0,0,1,76,18.34a2,2,0,0,1-.76-.44,1.77,1.77,0,0,1-.45-.69,2.59,2.59,0,0,1-.15-.9V11.54H73.13v-1.1h1.51V8.3h1.28v2.15h2.34v1.1H75.92v4.57a1.55,1.55,0,0,0,.08.5,1,1,0,0,0,.25.4,1.15,1.15,0,0,0,.43.26,1.88,1.88,0,0,0,.64.09,3.77,3.77,0,0,0,.54,0,4.27,4.27,0,0,0,.52-.11Z"/><path class="cls-1" d="M44.55,21.21a1.77,1.77,0,0,1-.69.12,1.26,1.26,0,0,1-.86-.28.93.93,0,0,1-.32-.74,1,1,0,0,1,.36-.79,1.39,1.39,0,0,1,.92-.3,1.78,1.78,0,0,1,.59.08v.25a1.43,1.43,0,0,0-.6-.12,1,1,0,0,0-.7.23.79.79,0,0,0-.27.63.75.75,0,0,0,.25.59,1,1,0,0,0,.66.22,1.47,1.47,0,0,0,.66-.14Z"/><path class="cls-1" d="M46.14,21.33a1.24,1.24,0,0,1-.86-.29A1,1,0,0,1,45,20.3a1,1,0,0,1,.33-.79,1.29,1.29,0,0,1,.89-.29,1.21,1.21,0,0,1,.84.28,1,1,0,0,1,.32.74A1,1,0,0,1,47,21,1.27,1.27,0,0,1,46.14,21.33Zm0-1.89a.9.9,0,0,0-.64.23.88.88,0,0,0,0,1.22.87.87,0,0,0,.63.23.93.93,0,0,0,.65-.22.79.79,0,0,0,.24-.61.82.82,0,0,0-.23-.62A.89.89,0,0,0,46.16,19.44Z"/><path class="cls-1" d="M49.93,21.3h-.36l-1.29-1.63a.63.63,0,0,1-.08-.13h0a1.74,1.74,0,0,1,0,.28V21.3H47.9v-2h.38l1.26,1.6.1.14h0a1.78,1.78,0,0,1,0-.3V19.26h.29Z"/><path class="cls-1" d="M50.54,21.21v-.28l.14.08.18.06.18,0h.17a.8.8,0,0,0,.41-.08.26.26,0,0,0,.13-.24.24.24,0,0,0,0-.14.45.45,0,0,0-.12-.11l-.19-.1-.23-.1-.25-.11-.2-.12a.53.53,0,0,1-.13-.15.39.39,0,0,1,0-.2.4.4,0,0,1,.08-.24.59.59,0,0,1,.2-.17,1,1,0,0,1,.28-.1,1.56,1.56,0,0,1,.32,0,1.48,1.48,0,0,1,.54.07v.27a1.16,1.16,0,0,0-.57-.13l-.19,0-.17.05a.36.36,0,0,0-.12.1.22.22,0,0,0,0,.14.25.25,0,0,0,0,.14A.36.36,0,0,0,51,20l.17.09.23.1.26.11a1.16,1.16,0,0,1,.21.13.6.6,0,0,1,.14.16.38.38,0,0,1,.05.2A.44.44,0,0,1,52,21a.54.54,0,0,1-.2.17,1,1,0,0,1-.28.09,1.91,1.91,0,0,1-.34,0H51l-.18,0-.17,0Z"/><path class="cls-1" d="M54.47,20.47q0,.86-1,.86t-.92-.83V19.26h.29v1.23q0,.63.65.63t.63-.61V19.26h.29Z"/><path class="cls-1" d="M56.46,21.3H55.16v-2h.29v1.82h1Z"/><path class="cls-1" d="M58.4,19.47h-.73V21.3h-.29V19.47h-.72v-.22H58.4Z"/><path class="cls-1" d="M59.4,19.26v.21h-.25v1.63h.25v.2h-.79v-.2h.25V19.46h-.25v-.21Z"/><path class="cls-1" d="M61.91,21.3h-.36l-1.29-1.63a.63.63,0,0,1-.08-.13h0a1.74,1.74,0,0,1,0,.28V21.3h-.29v-2h.38l1.26,1.6.1.14h0a1.78,1.78,0,0,1,0-.3V19.26h.29Z"/><path class="cls-1" d="M64.52,21.16a2,2,0,0,1-.84.17A1.3,1.3,0,0,1,62.8,21a.93.93,0,0,1-.33-.75,1,1,0,0,1,.37-.78,1.42,1.42,0,0,1,.94-.3,1.92,1.92,0,0,1,.69.11v.26a1.56,1.56,0,0,0-.72-.16,1,1,0,0,0-.69.24.84.84,0,0,0,0,1.22,1,1,0,0,0,.68.22,1.26,1.26,0,0,0,.51-.1v-.57h-.55v-.22h.85Z"/><path class="cls-1" d="M66,20.58h-1v-.18h1Z"/><path class="cls-1" d="M68.55,21.16a2,2,0,0,1-.84.17,1.3,1.3,0,0,1-.87-.28.93.93,0,0,1-.33-.75,1,1,0,0,1,.37-.78,1.42,1.42,0,0,1,.94-.3,1.92,1.92,0,0,1,.69.11v.26a1.56,1.56,0,0,0-.72-.16,1,1,0,0,0-.69.24.84.84,0,0,0,0,1.22,1,1,0,0,0,.68.22,1.26,1.26,0,0,0,.51-.1v-.57H67.7v-.22h.85Z"/><path class="cls-1" d="M71,21.3h-.35l-.42-.57-.11-.14L70,20.5l-.12-.05-.15,0h-.24v.87H69.2v-2h.75a1.3,1.3,0,0,1,.3,0,.75.75,0,0,1,.24.1.5.5,0,0,1,.16.17.51.51,0,0,1,0,.43.5.5,0,0,1-.11.16.66.66,0,0,1-.18.12,1,1,0,0,1-.23.08h0l.11.05.09.07.08.09.09.12Zm-1.51-1.82v.74h.4l.2,0a.51.51,0,0,0,.16-.08.36.36,0,0,0,.11-.12.34.34,0,0,0,0-.16.3.3,0,0,0-.13-.26.65.65,0,0,0-.38-.09Z"/><path class="cls-1" d="M72.42,21.33a1.24,1.24,0,0,1-.86-.29,1,1,0,0,1-.32-.74,1,1,0,0,1,.33-.79,1.29,1.29,0,0,1,.89-.29,1.21,1.21,0,0,1,.84.28,1,1,0,0,1,.32.74,1,1,0,0,1-.33.79A1.27,1.27,0,0,1,72.42,21.33Zm0-1.89a.9.9,0,0,0-.64.23.88.88,0,0,0,0,1.22.87.87,0,0,0,.63.23.93.93,0,0,0,.65-.22.79.79,0,0,0,.24-.61.82.82,0,0,0-.23-.62A.89.89,0,0,0,72.45,19.44Z"/><path class="cls-1" d="M76,20.47q0,.86-1,.86t-.92-.83V19.26h.29v1.23q0,.63.65.63t.63-.61V19.26H76Z"/><path class="cls-1" d="M77,20.53v.77h-.29v-2h.69a1.06,1.06,0,0,1,.63.16.52.52,0,0,1,.22.45.57.57,0,0,1-.25.48,1.08,1.08,0,0,1-.67.19Zm0-1.05v.84h.31a.8.8,0,0,0,.47-.11.37.37,0,0,0,.16-.32q0-.4-.59-.4Z"/><path class="cls-1" d="M21.69,18.29a4.71,4.71,0,0,1-1.84-.34,3.93,3.93,0,0,1-1.39-1,4.25,4.25,0,0,1-.88-1.49,5.79,5.79,0,0,1-.31-1.93,6.1,6.1,0,0,1,.32-2.06A4.32,4.32,0,0,1,18.53,10,3.92,3.92,0,0,1,20,9a5.1,5.1,0,0,1,1.89-.33,4.69,4.69,0,0,1,1.8.33A3.67,3.67,0,0,1,25,9.94a4.23,4.23,0,0,1,.85,1.51,6.38,6.38,0,0,1,.3,2,5.9,5.9,0,0,1-.31,2A4.43,4.43,0,0,1,25,16.95a3.92,3.92,0,0,1-1.4,1A4.74,4.74,0,0,1,21.69,18.29Zm.09-9.05c-3.49.11-3.76,3-3.74,4.3.07,4,3.21,4,3.72,4a3.67,3.67,0,0,0,3.63-3.82C25.56,9.83,22.8,9.2,21.78,9.24Z"/><path class="cls-1" d="M17.83,5.88l-.19.31c-.12.2-.31.49-.52.88-.11.19-.23.4-.36.63l-.4.75c-.13.27-.28.56-.43.87s-.3.63-.43,1a17.65,17.65,0,0,0-.78,2.26,14,14,0,0,0-.45,2.59,10.64,10.64,0,0,0,0,1.37,10.44,10.44,0,0,0,.19,1.38,8.44,8.44,0,0,0,1,2.62,9.11,9.11,0,0,0,1.78,2.18,10.31,10.31,0,0,0,2.27,1.54,11.6,11.6,0,0,0,2.41.9,8.9,8.9,0,0,0,2.28.25A4.77,4.77,0,0,0,26.06,25a3.1,3.1,0,0,0,.66-.43,2.54,2.54,0,0,0,.44-.51,3,3,0,0,0,.38-.91l.07-.36s0,.12,0,.37a2.78,2.78,0,0,1-.19,1l-.07.17-.09.17a2.82,2.82,0,0,1-.23.34,3.13,3.13,0,0,1-.69.63,4.49,4.49,0,0,1-.94.47,5.76,5.76,0,0,1-1.13.27,8.14,8.14,0,0,1-1.25.07,10.41,10.41,0,0,1-5.33-1.8,10.32,10.32,0,0,1-1.22-1,9.89,9.89,0,0,1-1.09-1.15,8.86,8.86,0,0,1-.9-1.32,9.51,9.51,0,0,1-1.07-3,10.2,10.2,0,0,1-.08-3A13,13,0,0,1,14,12.33a16.28,16.28,0,0,1,1-2.29c.34-.69.7-1.29,1-1.81l.48-.72c.15-.22.3-.42.43-.6.26-.36.48-.62.63-.81l.22-.28Z"/><path class="cls-1" d="M19.71,4.1a6.23,6.23,0,0,1,1-.91c.16-.13.34-.24.53-.38s.4-.26.63-.37l.34-.18.36-.17a8.12,8.12,0,0,1,.75-.3c.26-.09.52-.16.78-.24l.77-.18c.25,0,.5-.07.73-.11s.46,0,.66-.05a5.45,5.45,0,0,1,.56,0h.81l0,.69h-.76c-.16,0-.33,0-.53,0s-.4,0-.62,0L25,2l-.74.12c-.25.06-.5.11-.75.18s-.5.14-.74.23l-.36.13L22,2.81c-.23.09-.44.2-.64.29s-.39.2-.56.3a8.28,8.28,0,0,0-1.1.73Z"/><path class="cls-1" d="M21.71,2.7l-.07-.13-.1-.12a2.3,2.3,0,0,0-.27-.25,5,5,0,0,0-.68-.45A9.3,9.3,0,0,0,19,1.07,8.8,8.8,0,0,0,17.36.68a4.55,4.55,0,0,0-.84,0,1.65,1.65,0,0,0-.73.19h0l.09-.12a1.89,1.89,0,0,0-.1.36,3.24,3.24,0,0,0,0,.4,7.18,7.18,0,0,0,0,.84,16.85,16.85,0,0,0,.2,1.7c.19,1.13.44,2.25.74,3.36l-.07,0c-.37-1.09-.7-2.2-1-3.33a16.92,16.92,0,0,1-.31-1.72,7.47,7.47,0,0,1-.06-.89,3.67,3.67,0,0,1,0-.46,2.38,2.38,0,0,1,.1-.47l0-.07.07,0h0a2.16,2.16,0,0,1,1-.36,5.18,5.18,0,0,1,1,0,9.55,9.55,0,0,1,1.85.26A10.21,10.21,0,0,1,21,.86a6,6,0,0,1,.86.47,3.42,3.42,0,0,1,.42.32l.2.21a2.32,2.32,0,0,1,.18.24Z"/><path class="cls-1" d="M27.61,20.46H27.4a3.68,3.68,0,0,0-.54,0,1.63,1.63,0,0,0-.67.2.67.67,0,0,0-.24.25.78.78,0,0,0-.07.17s0,.07,0,.1v0h0v0h0v.18a.86.86,0,0,0,0,.09.7.7,0,0,0,.07.18,1.77,1.77,0,0,0,.12.17l.15.15a3,3,0,0,0,.66.45,4.68,4.68,0,0,0,.53.23l.21.07v.06l-.22,0a4.81,4.81,0,0,1-.57-.17,3.18,3.18,0,0,1-.76-.39L25.88,22a1.93,1.93,0,0,1-.17-.2,1,1,0,0,1-.13-.25,1.39,1.39,0,0,1,0-.14l0-.12v-.06h0v0h0v-.05s0-.09,0-.14a1.18,1.18,0,0,1,.07-.28,1.11,1.11,0,0,1,.34-.46,2.11,2.11,0,0,1,.85-.38,4.25,4.25,0,0,1,.62-.09h.23Z"/><ellipse class="cls-2" cx="22.56" cy="13.48" rx="0.79" ry="1.37"/><path class="cls-1" d="M27.56,22.78"/><path class="cls-1" d="M27.56.72"/><path class="cls-1" d="M27.55,22.77"/><path class="cls-1" d="M27.54,20.13"/><path class="cls-1" d="M27.61,22.78"/><path class="cls-1" d="M27.61.72"/><path class="cls-1" d="M27.61,22.77"/><path class="cls-1" d="M27.61,20.13"/><path class="cls-1" d="M33.47,18.29a4.71,4.71,0,0,0,1.84-.34,3.93,3.93,0,0,0,1.39-1,4.25,4.25,0,0,0,.88-1.49,5.8,5.8,0,0,0,.31-1.93,6.1,6.1,0,0,0-.32-2.06A4.32,4.32,0,0,0,36.64,10,3.93,3.93,0,0,0,35.2,9a5.1,5.1,0,0,0-1.89-.33,4.69,4.69,0,0,0-1.8.33,3.66,3.66,0,0,0-1.36.95,4.22,4.22,0,0,0-.85,1.51,6.38,6.38,0,0,0-.3,2,5.9,5.9,0,0,0,.31,2,4.43,4.43,0,0,0,.88,1.52,3.92,3.92,0,0,0,1.4,1A4.74,4.74,0,0,0,33.47,18.29Zm-.09-9.05c3.49.11,3.76,3,3.73,4.3-.07,4-3.21,4-3.72,4a3.67,3.67,0,0,1-3.63-3.82C29.6,9.83,32.36,9.2,33.38,9.24Z"/><path class="cls-1" d="M37.45,5.81l.22.28c.14.19.37.45.63.81.13.18.28.38.43.6l.48.72c.33.53.69,1.13,1,1.81a16.33,16.33,0,0,1,1,2.29,13,13,0,0,1,.61,2.73,10.2,10.2,0,0,1-.08,3,9.51,9.51,0,0,1-1.07,3,8.93,8.93,0,0,1-.9,1.32,9.93,9.93,0,0,1-1.09,1.15,10.32,10.32,0,0,1-1.22,1,10.54,10.54,0,0,1-4,1.65,10.15,10.15,0,0,1-1.32.15,8.13,8.13,0,0,1-1.25-.07A5.76,5.76,0,0,1,29.75,26a4.48,4.48,0,0,1-.94-.47,3.13,3.13,0,0,1-.69-.63,2.87,2.87,0,0,1-.23-.34l-.09-.17-.07-.17a2.78,2.78,0,0,1-.19-1c0-.24,0-.37,0-.37l.07.36A3,3,0,0,0,28,24a2.54,2.54,0,0,0,.44.51,3.1,3.1,0,0,0,.66.43,4.77,4.77,0,0,0,1.85.41,8.9,8.9,0,0,0,2.28-.25,11.61,11.61,0,0,0,2.41-.9,10.33,10.33,0,0,0,2.27-1.54,9.12,9.12,0,0,0,1.78-2.18,8.45,8.45,0,0,0,1-2.62,10.51,10.51,0,0,0,.19-1.38,10.64,10.64,0,0,0,0-1.37,13.92,13.92,0,0,0-.45-2.59,17.59,17.59,0,0,0-.78-2.26c-.13-.35-.29-.67-.43-1s-.3-.59-.43-.87l-.4-.75c-.13-.23-.25-.44-.36-.63-.21-.38-.4-.67-.52-.88l-.19-.31Z"/><path class="cls-1" d="M35.42,4.13a8.32,8.32,0,0,0-1.1-.73c-.17-.1-.36-.2-.56-.3s-.41-.2-.64-.29l-.34-.14-.36-.13c-.24-.09-.49-.15-.74-.23s-.5-.12-.75-.18L30.19,2l-.69-.07c-.22,0-.43,0-.62,0s-.37,0-.53,0h-.76l0-.69h.81a5.45,5.45,0,0,1,.56,0c.2,0,.43,0,.66.05s.48.06.73.11l.77.18c.26.08.52.15.78.24s.51.18.75.3l.36.17.34.18c.23.11.43.25.63.37s.38.25.53.38a6.26,6.26,0,0,1,1,.91Z"/><path class="cls-1" d="M32.46,2.11a2.32,2.32,0,0,1,.18-.24l.2-.21a3.42,3.42,0,0,1,.42-.32,6,6,0,0,1,.86-.47,10.19,10.19,0,0,1,1.78-.6A9.54,9.54,0,0,1,37.75,0a5.17,5.17,0,0,1,1,0,2.16,2.16,0,0,1,1,.36h0l.07,0,0,.07a2.38,2.38,0,0,1,.1.47,3.66,3.66,0,0,1,0,.46,7.56,7.56,0,0,1-.06.89,17.16,17.16,0,0,1-.31,1.72c-.26,1.13-.59,2.24-1,3.33l-.07,0c.3-1.11.55-2.23.74-3.36a16.6,16.6,0,0,0,.2-1.7,7.09,7.09,0,0,0,0-.84,3.23,3.23,0,0,0,0-.4,1.92,1.92,0,0,0-.1-.36l.09.12h0a1.65,1.65,0,0,0-.73-.19,4.55,4.55,0,0,0-.84,0,8.8,8.8,0,0,0-1.67.39,9.29,9.29,0,0,0-1.57.68,5,5,0,0,0-.68.45,2.32,2.32,0,0,0-.27.25l-.1.12-.07.13Z"/><path class="cls-1" d="M27.55,19.8h.23a4.26,4.26,0,0,1,.62.09,2.11,2.11,0,0,1,.85.38,1.12,1.12,0,0,1,.34.46,1.2,1.2,0,0,1,.07.28s0,.09,0,.14v.05h0v0h0v.06l0,.12a1.4,1.4,0,0,1,0,.14,1,1,0,0,1-.13.25,2,2,0,0,1-.17.2l-.19.16a3.18,3.18,0,0,1-.76.39,4.76,4.76,0,0,1-.57.17l-.22,0v-.06l.21-.07a4.68,4.68,0,0,0,.53-.23,3,3,0,0,0,.66-.45l.15-.15a1.77,1.77,0,0,0,.12-.17.71.71,0,0,0,.07-.18.76.76,0,0,0,0-.09v-.18h0v0h0v-.12a.76.76,0,0,0-.07-.17.67.67,0,0,0-.24-.25,1.63,1.63,0,0,0-.67-.2,3.69,3.69,0,0,0-.54,0h-.22Z"/><ellipse class="cls-2" cx="32.6" cy="13.48" rx="0.79" ry="1.37"/><path class="cls-1" d="M27.61,22.78"/><path class="cls-1" d="M27.61.72"/><path class="cls-1" d="M27.61,22.77"/><path class="cls-1" d="M27.63,20.13"/><path class="cls-1" d="M27.56,22.78"/><path class="cls-1" d="M27.56.72"/><path class="cls-1" d="M27.55,22.77"/><path class="cls-1" d="M27.55,20.13"/><path class="cls-1" d="M24.16,25.51l.27.14.31.15.19.08.22.08c.15.06.32.11.49.16s.37.09.56.14.4.07.61.09a6.18,6.18,0,0,0,.63,0h.32l.31,0,.31,0,.3,0c.1,0,.19,0,.29-.06l.27-.07a4.92,4.92,0,0,0,.48-.17l.21-.09.18-.09a2.59,2.59,0,0,0,.3-.16l.25-.15.14.16-.23.21a2.17,2.17,0,0,1-.29.22l-.18.13-.22.12a3.74,3.74,0,0,1-.51.23,4.9,4.9,0,0,1-1.25.29l-.34,0h-.34a6.7,6.7,0,0,1-.68-.06,6.19,6.19,0,0,1-.65-.13,5.87,5.87,0,0,1-.59-.19l-.27-.11L25,26.3l-.22-.11-.19-.12a2.92,2.92,0,0,1-.3-.2L24,25.68Z"/><ellipse class="cls-1" cx="22.59" cy="13.48" rx="0.22" ry="0.38"/><ellipse class="cls-1" cx="32.63" cy="13.48" rx="0.22" ry="0.38"/></g></g></svg>