<svg xmlns="http://www.w3.org/2000/svg" viewBox="0 0 136.56 115"><defs><style>.cls-1{font-size:27.91px;}.cls-1,.cls-2,.cls-4,.cls-5{fill:#fff;}.cls-1,.cls-2{font-family:Ananda, Ananda;}.cls-2{font-size:39.13px;}.cls-3{fill:#00d8ff;}.cls-4{font-size:11.59px;letter-spacing:0.8em;}.cls-4,.cls-5{font-family:Champagne&Limousines, Champagne & Limousines;}.cls-5{font-size:11.49px;letter-spacing:0.8em;}</style></defs><title>LogoJustReact0</title><g id="Capa_2" data-name="Capa 2"><g id="Propuesta_2" data-name="Propuesta 2"><text class="cls-1" transform="translate(0.17 27.49)">Just</text><text class="cls-2" transform="translate(19.88 67.61)">React</text><path class="cls-3" d="M92.87,35.34l-.2.19a22.47,22.47,0,0,1-4,3.05A12.55,12.55,0,0,1,85.28,40a6.45,6.45,0,0,1-2.24.19,3.81,3.81,0,0,1-2.59-1.32,5.79,5.79,0,0,1-1.12-2.17,11,11,0,0,1-.41-2.44A16.78,16.78,0,0,1,79,31.62,25.22,25.22,0,0,1,79.59,28l0-.2a.23.23,0,0,0,0-.06l-.22-.07a22.57,22.57,0,0,1-4.6-1.91,12.74,12.74,0,0,1-3-2.22,6.49,6.49,0,0,1-1.33-1.91,3.83,3.83,0,0,1,.07-3.35A6.57,6.57,0,0,1,72,16.47a12.93,12.93,0,0,1,2.91-2,23.63,23.63,0,0,1,4.44-1.77l.32-.1a1.57,1.57,0,0,0,0-.18,27.09,27.09,0,0,1-.53-2.75A18.08,18.08,0,0,1,79,5.42a9.07,9.07,0,0,1,.63-2.65,5,5,0,0,1,1.06-1.63,3.7,3.7,0,0,1,2.17-1A6.54,6.54,0,0,1,85.68.4a14.09,14.09,0,0,1,3.47,1.68,24.61,24.61,0,0,1,3.49,2.76L92.8,5,93,4.82a23.28,23.28,0,0,1,4.36-3.33,12,12,0,0,1,3-1.26A6.52,6.52,0,0,1,102.17,0a3.79,3.79,0,0,1,3.09,1.62,6.51,6.51,0,0,1,1,2.27,11.67,11.67,0,0,1,.33,2.25,21,21,0,0,1-.42,5.18c-.07.38-.16.75-.24,1.12,0,0,0,.08,0,.14l.24.08a24.52,24.52,0,0,1,4.34,1.72,13.5,13.5,0,0,1,3,2.08A6.93,6.93,0,0,1,114.81,18a4.18,4.18,0,0,1,.58,1.72,3.92,3.92,0,0,1-.43,2.14,6.59,6.59,0,0,1-1.26,1.71,12.62,12.62,0,0,1-2.76,2,23.36,23.36,0,0,1-4.65,2l-.23.08,0,0,0,.22a22.06,22.06,0,0,1,.65,5.28,11.88,11.88,0,0,1-.51,3.57,6.38,6.38,0,0,1-.85,1.75,3.87,3.87,0,0,1-3.21,1.71,7.31,7.31,0,0,1-2.72-.49,15.3,15.3,0,0,1-3.65-2,25.08,25.08,0,0,1-2.65-2.2Zm-.63-7.89c1.8,0,3.15,0,4.5-.14a.36.36,0,0,0,.31-.17A63.43,63.43,0,0,0,101,20.29a.35.35,0,0,0,0-.35c-.5-.93-1-1.87-1.49-2.79-.76-1.37-1.58-2.7-2.45-4a.32.32,0,0,0-.27-.17q-1.81-.13-3.62-.14-2.11,0-4.21.13a.49.49,0,0,0-.42.24,56.91,56.91,0,0,0-3.87,6.71.45.45,0,0,0,0,.45,56.81,56.81,0,0,0,3.9,6.74.44.44,0,0,0,.39.22ZM80.16,25.92l.08-.21a46,46,0,0,1,2.07-5.37.45.45,0,0,0,0-.41,45.16,45.16,0,0,1-2.06-5.33l-.07-.17-.12,0a21.44,21.44,0,0,0-4.57,1.84A10.21,10.21,0,0,0,73.14,18a4.46,4.46,0,0,0-.86,1.19,1.94,1.94,0,0,0,0,1.71,4.21,4.21,0,0,0,.61,1,9.15,9.15,0,0,0,2.25,1.88A19.81,19.81,0,0,0,80,25.9Zm1.36,2.35c0,.09,0,.15-.06.22-.1.48-.22,1-.3,1.44a17.25,17.25,0,0,0-.3,4.45,8.31,8.31,0,0,0,.36,2,3.93,3.93,0,0,0,.64,1.25,1.9,1.9,0,0,0,1.26.71,4.15,4.15,0,0,0,1.42-.07A9.27,9.27,0,0,0,87,37.3,19.76,19.76,0,0,0,91.43,34l.07-.09-.15-.17c-.77-.84-1.51-1.7-2.2-2.59-.49-.63-1-1.26-1.43-1.9a.33.33,0,0,0-.26-.16L85.87,29c-1.39-.15-2.77-.37-4.13-.66Zm22.62-.09-.23,0a42.81,42.81,0,0,1-4.49.75l-1.26.13a.33.33,0,0,0-.26.15,45.23,45.23,0,0,1-3.59,4.57l-.09.13.09.1A23.36,23.36,0,0,0,97,36.26,13.35,13.35,0,0,0,100,37.94a5.63,5.63,0,0,0,2,.39,2,2,0,0,0,1.76-1,4.72,4.72,0,0,0,.54-1.15,10,10,0,0,0,.43-3,19.5,19.5,0,0,0-.45-4.22C104.28,28.75,104.21,28.48,104.15,28.19ZM91.47,6.34l-.16-.12a23.57,23.57,0,0,0-2.62-2.14A14,14,0,0,0,85.62,2.4,5.83,5.83,0,0,0,83.38,2a1.94,1.94,0,0,0-1.71,1c-.06.1-.12.2-.17.3a5.19,5.19,0,0,0-.41,1.15A12,12,0,0,0,80.87,8a22.94,22.94,0,0,0,.59,3.73c0,.1.06.2.09.31l.17,0c1-.18,1.92-.38,2.89-.53s1.8-.24,2.7-.34a.57.57,0,0,0,.45-.26A44.86,44.86,0,0,1,91.3,6.53ZM104,12.1a.89.89,0,0,0,0-.11c.08-.35.16-.69.23-1a18.85,18.85,0,0,0,.38-4.86,8.94,8.94,0,0,0-.37-2.1,4,4,0,0,0-.7-1.37A1.78,1.78,0,0,0,102.5,2,3.87,3.87,0,0,0,101,2,9.23,9.23,0,0,0,98.6,3a20.91,20.91,0,0,0-4.36,3.29.66.66,0,0,0-.07.09l.1.11c.76.83,1.49,1.69,2.18,2.59.49.63,1,1.28,1.43,1.92a.33.33,0,0,0,.26.17l1.44.16q1.71.21,3.4.55Zm1.45,13.73.15,0a22.3,22.3,0,0,0,3.81-1.52,12,12,0,0,0,2.67-1.81A5.17,5.17,0,0,0,113.24,21a2,2,0,0,0,0-1.94,4.57,4.57,0,0,0-.67-.91,9.81,9.81,0,0,0-2.33-1.78,21.4,21.4,0,0,0-4.68-1.93l-.13,0,0,0,0,.13a44,44,0,0,1-2.06,5.26.43.43,0,0,0,0,.41,44.37,44.37,0,0,1,2.14,5.34Zm-1.89.5a25.77,25.77,0,0,0-1.52-3.94c-.43.78-.86,1.56-1.3,2.34s-.91,1.53-1.38,2.32A40,40,0,0,0,103.59,26.33ZM92.84,32.57l.09-.08c.86-.95,1.65-1.94,2.42-3l.12-.18s0,0,0,0v0c-1.76.07-3.52.07-5.34,0C91,30.46,91.89,31.54,92.84,32.57ZM83.53,22.43a25.23,25.23,0,0,0-1.45,4,40.15,40.15,0,0,0,4.15.66C85.24,25.55,84.35,24,83.53,22.43Zm6.62-11.52,0,0,1.3,0h2.64l1.31,0,0,0A40.89,40.89,0,0,0,92.8,7.74C91.85,8.77,91,9.82,90.14,10.92Zm11.92,6.94A30.42,30.42,0,0,0,103.5,14a27,27,0,0,0-4.09-.7C100.35,14.77,101.22,16.29,102.06,17.86Zm-20-3.92a41.14,41.14,0,0,0,1.42,3.89l.05,0c.8-1.54,1.68-3,2.59-4.5,0,0,0,0,0,0l0,0C84.76,13.41,83.41,13.64,82.06,13.94Z"/><ellipse class="cls-3" cx="92.78" cy="20.09" rx="4.04" ry="4.03" transform="translate(72.51 112.83) rotate(-89.89)"/><text class="cls-4" transform="translate(0.19 98.93)">EQUIPO DE</text><text class="cls-5" transform="translate(0.19 112.79)">FRONT-END</text></g></g></svg>