<svg xmlns="http://www.w3.org/2000/svg" viewBox="0 0 189.74 177.7"><defs><style>.cls-1{isolation:isolate;}.cls-2{fill:#5da2a2;}.cls-16,.cls-2,.cls-21,.cls-28,.cls-7{opacity:0.3;}.cls-10,.cls-12,.cls-14,.cls-16,.cls-19,.cls-2,.cls-21,.cls-22,.cls-24,.cls-26,.cls-27,.cls-29,.cls-7{mix-blend-mode:multiply;}.cls-3{fill:#0b1114;}.cls-4{fill:#f1f3f3;}.cls-16,.cls-22,.cls-5{fill:#efc2a3;}.cls-27,.cls-6{fill:#1c2c3c;}.cls-10,.cls-8,.cls-9{fill:#dbdede;}.cls-10,.cls-9{opacity:0.6;}.cls-11{fill:#cf1f3a;}.cls-12{fill:#c61e41;}.cls-12,.cls-18,.cls-19{opacity:0.5;}.cls-13,.cls-14{fill:#382819;}.cls-14,.cls-24,.cls-27{opacity:0.2;}.cls-15{fill:#20160e;}.cls-17{fill:#c48d7e;}.cls-18{fill:#d89a8a;}.cls-20{fill:#dfe0e0;}.cls-21,.cls-23,.cls-24{fill:#0f171c;}.cls-22{opacity:0.4;}.cls-25,.cls-26{fill:#ededed;}.cls-28{fill:#0f1a1f;}.cls-29{fill:#d6d6d6;}</style></defs><title>Personas0</title><g class="cls-1"><g id="Capa_2" data-name="Capa 2"><g id="Dashboard"><ellipse class="cls-2" cx="29.27" cy="172.15" rx="29.27" ry="5.55"/><path class="cls-3" d="M20.85,168.55a11.92,11.92,0,0,0-4,3.22c-1,1.61-1.41,4.12,3.22,1.71,2.59-1.35,3.92-3.62,2.72-4.73S20.85,168.55,20.85,168.55Z"/><path class="cls-3" d="M34.89,166.84a11.92,11.92,0,0,1,4.45,2.6c1.26,1.44,2,3.88-2.94,2.16-2.76-1-4.4-3-3.37-4.29S34.89,166.84,34.89,166.84Z"/><path class="cls-4" d="M52.63,2.38s-6.57,3-7.58,9.92-.52,13.27,7.58,21.05,17,6.1,21.66,2.88,7.31-12.07,4.89-20.31C77.24,9.3,72.62,2.14,65.54.4,61.13-.68,56.67.6,52.63,2.38Z"/><path class="cls-5" d="M13.19,128.74s-.46,4.58,2.83,4.71,1.33-4.83,1.33-4.83Z"/><path class="cls-6" d="M18,128.74s-.37,33.23,1.32,40a.94.94,0,0,0,.86.7,4.33,4.33,0,0,0,2-.33,1.06,1.06,0,0,0,.57-.89c.33-4.37,2.59-34,4.08-39.47C26.89,128.74,25.07,129.16,18,128.74Z"/><path class="cls-6" d="M37.71,127.33s.36,32.3-1.25,39.69a1.29,1.29,0,0,1-1.29,1,3.33,3.33,0,0,1-2.19-.68s-2.2-32.74-3.81-38.6C29.17,128.74,30.68,127.75,37.71,127.33Z"/><path class="cls-6" d="M18,135.16s10.5,3.42,19.75-.4v-7.94L18,127.33Z"/><g class="cls-7"><path class="cls-6" d="M34.26,126.91c3.33,9.28,3,33.12,3,33.17.46-7.52.54-18.41.54-25.53v-7.73Z"/><path class="cls-6" d="M22.8,168.21c.25-3.29,1.59-20.88,2.87-31.72.84.05,1.71.08,2.62.07-3.61-.35-5.12-3.15-4.7-.76.47,2.64-.67,29.08-.82,32.57A1.21,1.21,0,0,0,22.8,168.21Z"/><path class="cls-6" d="M33.87,167.83l-3.33-31.38-.18,0C31.69,148.11,33,167.34,33,167.34A2.4,2.4,0,0,0,33.87,167.83Z"/></g><path class="cls-4" d="M18.14,93.33a4.77,4.77,0,0,0-2.72,5.13c.4,3.92-1.41,24.54-2.92,29.37,0,0,1,2.64,4.85,1.42,0,0,1.79-17.71,2.19-26.36C19.54,102.88,19.6,92.28,18.14,93.33Z"/><path class="cls-8" d="M17.35,129.24s1.79-17.71,2.19-26.36a57.9,57.9,0,0,0-.5-8.16l-.85,1.36S17,126.84,15.32,129.24a2.78,2.78,0,0,0-.18.3A5.67,5.67,0,0,0,17.35,129.24Z"/><path class="cls-4" d="M18.14,93.33s.59,23.34-.63,34.08a1.28,1.28,0,0,0,1.1,1.42,53.23,53.23,0,0,0,18.54-.94,1.43,1.43,0,0,0,1.1-1.4c0-4.7,0-22.93.61-31a7.15,7.15,0,0,0-2.41-5.88l-.6-.53H27.35c-2.39,0-.92-1.45-2.82,0Z"/><path class="cls-9" d="M26.37,93.25l-2.68,1.47L23,97.4s4.82-1.63,5.67-3.43Z"/><polygon class="cls-10" points="29.79 95.65 29.17 96.59 31.27 117.59 28.5 121.81 25.68 118.81 27.98 96.07 27.39 94.55 28.69 93.97 29.79 95.65"/><path class="cls-9" d="M32.4,89.1l1.4,8.3s-5.16-1.12-5.71-4.14V89.1Z"/><polygon class="cls-11" points="27.97 92.3 26.37 94.98 27.97 96.79 29.79 94.95 27.97 92.3"/><polygon class="cls-11" points="27.45 96.18 25.41 117.96 28.2 121.38 30.54 117.51 28.63 96.07 27.45 96.18"/><path class="cls-12" d="M25.43,118l2.78,3.4,2.34-3.87L28.63,96.12l1.15-1.17-.46-.67a1.46,1.46,0,0,1-1.65,1,2.4,2.4,0,0,1-1.11-.66l-.2.34,1.08,1.22-.06.59h0s1.07,0,1.78,8.33C29.84,112.94,28,117.91,25.43,118Z"/><path class="cls-4" d="M24.27,89.64l-1.82,6.7a9.76,9.76,0,0,0,5.65-3.09,8.27,8.27,0,0,0,4.83,3.09L32,89.1s-.41-1.81-3.93-1.51S24.27,89.64,24.27,89.64Z"/><path class="cls-13" d="M12.23,57.7s-2.85-6.62-2-8.43,3.22-4.73,5.73-5.33A21.39,21.39,0,0,1,12.4,30.37s3.36,3.82,4.95,3.82a16.28,16.28,0,0,1-.82-7.54s3.72,4.93,5.93,5.73a14.32,14.32,0,0,1-.5-5S32.52,35.8,43.08,38.11,53.84,51.69,48.61,54.3c0,0,4,2.61,4,5.93S48.85,68.11,46,69.4,12.23,57.7,12.23,57.7Z"/><path class="cls-14" d="M46,62.6c.85-4.78,1.47-14.67-3.76-14.09a77.52,77.52,0,0,1-15.85,0c-4.13-.5,8-5.32,0-5.32S12.53,35.07,12.5,35a21.86,21.86,0,0,0,3.42,8.91h0a25,25,0,0,0,1.88,2.32l4.93,9.23S45.13,67.38,46,62.6Z"/><path class="cls-5" d="M17.35,45.76S5,69.49,11.4,76.53,24.87,84,25.68,89.4,29.1,94,30.3,90.61c1.48-4.2,4.55-6.56,8.32-8.62A12.73,12.73,0,0,0,45,74.72a27.91,27.91,0,0,0,1.26-11.17l0-.3c-.6-7.84-1.81-14.48-7-12.07s-15.64,5.58-20.67-5.08C18.49,46.11,17.75,45,17.35,45.76Z"/><ellipse class="cls-5" cx="11.53" cy="61.93" rx="1.98" ry="4.53"/><ellipse class="cls-5" cx="46.27" cy="72.47" rx="4.53" ry="1.98" transform="translate(-37.98 89.68) rotate(-68.99)"/><ellipse class="cls-15" cx="18.78" cy="62.6" rx="2.57" ry="1.05" transform="translate(-46.3 68.65) rotate(-78.62)"/><ellipse class="cls-15" cx="36.36" cy="65.82" rx="2.57" ry="1.05" transform="translate(-35.34 88.48) rotate(-78.62)"/><path class="cls-13" d="M17,57.4a1.66,1.66,0,0,1,1.13-1,2.75,2.75,0,0,1,1.57,0c.51.17.88.37,1.29.51s.82.27,1-.27a.56.56,0,0,1-.26.75,1.49,1.49,0,0,1-.83.14,6.16,6.16,0,0,1-1.4-.36A3.67,3.67,0,0,0,18.21,57,2.46,2.46,0,0,0,17,57.4Z"/><path class="cls-16" d="M47.89,68.25a1.27,1.27,0,0,0-1.11.19s1.27-.07,1.33,1-.8,6.57-2.94,6.24a1.2,1.2,0,0,1-1.09-1.27,17.71,17.71,0,0,1-9,8.92c-3.19,1.29-4.45,4.63-4.92,7.66l.13-.34c1.48-4.2,4.55-6.56,8.32-8.62a12.81,12.81,0,0,0,5.62-5.59,1,1,0,0,0,.4.3c1,.39,2.58-1.18,3.47-3.51S48.91,68.64,47.89,68.25Z"/><path class="cls-13" d="M35.4,56.35a1.63,1.63,0,0,0,1.39,0,4.47,4.47,0,0,0,.56-.44,5.22,5.22,0,0,1,.73-.46,2.49,2.49,0,0,1,1.79-.24,1.13,1.13,0,0,1,.71.67,1.53,1.53,0,0,1,.06.86c-.21-.52-.53-.91-.92-.92a2.77,2.77,0,0,0-1.28.35,6.07,6.07,0,0,0-.64.35,3,3,0,0,1-.77.41A1.46,1.46,0,0,1,35.4,56.35Z"/><path class="cls-17" d="M24.26,66.61c-.34.41-.62.84-.79,1.09-.79,1.12-1.23,2.5,0,3.5,2.27,1.8,3.88.25,3.25-3.64-.08-.49-.23-1.72-.84-1.92S24.76,66,24.26,66.61Z"/><path class="cls-13" d="M22.63,75.32a2.5,2.5,0,0,1,1-.57,3.1,3.1,0,0,1,1.19-.12,2.52,2.52,0,0,1,1.16.43,1.71,1.71,0,0,1,.68,1,5.78,5.78,0,0,0-1-.45,5.38,5.38,0,0,0-.95-.18C24.11,75.36,23.43,75.38,22.63,75.32Z"/><ellipse class="cls-18" cx="14.42" cy="68.18" rx="1.31" ry="2.91" transform="translate(-54.78 76.43) rotate(-84.86)"/><ellipse class="cls-18" cx="39.26" cy="71.85" rx="1.31" ry="2.91" transform="matrix(0.09, -1, 1, 0.09, -35.82, 104.52)"/><path class="cls-5" d="M47.23,69.77s-1-4.43.37-6c0,0-2.1,0-1.52-1.8s3-2.9,3-2.9l2.81,1.05a1.63,1.63,0,0,1,1,2c-.56,1.69-1.58,5-2,6.64Z"/><g class="cls-7"><path class="cls-5" d="M47.23,69.77l.67-.18a9.35,9.35,0,0,1-.31-5.86C46.26,65.33,47.23,69.77,47.23,69.77Z"/><path class="cls-5" d="M46.57,62.23a5,5,0,0,1,1-2.28,4.34,4.34,0,0,0-1.51,2c-.58,1.82,1.52,1.8,1.52,1.8A1.22,1.22,0,0,1,46.57,62.23Z"/><path class="cls-5" d="M51.89,60.08,49.08,59a6.85,6.85,0,0,0-.68.37h0s3.11.51,3.61,1.28-1.54,8.21-1.54,8.21l.43-.12c.4-1.64,1.41-5,2-6.64A1.63,1.63,0,0,0,51.89,60.08Z"/></g><circle class="cls-4" cx="56.65" cy="52.89" r="1.9"/><ellipse class="cls-4" cx="58.55" cy="44.03" rx="3.61" ry="5.52" transform="translate(-8.86 72.72) rotate(-60)"/><path class="cls-13" d="M59.6,8.21a8.52,8.52,0,0,0-4.16,5.16c-.8,3.49.4,4.63,2.08,4.43s2.15-2.61,2.75-3.89a2.76,2.76,0,0,1,4-.89c1.14,1,1.68,4.18,0,6.12S60.34,21.08,59.87,23c-.42,1.69-.34,4.84,2.21,4.76,2.29-.07.8-2.41,1.74-3.62s3.69-1.94,4.76-3.49,2.21-4.43,1.81-6.44a8.44,8.44,0,0,0-4.63-6C63,6.94,59.6,8.21,59.6,8.21Z"/><ellipse class="cls-13" cx="62.12" cy="31.94" rx="1.64" ry="2.01"/><path class="cls-16" d="M46.18,68.89a34.62,34.62,0,0,0,0-5.34l0-.3c-.6-7.84-1.81-14.48-7-12.07S23.91,56.65,18.78,46.7h0s3.3,8.13,11.89,8.09S39,51.15,41.91,52.31,46.36,61.46,46.18,68.89Z"/><path class="cls-16" d="M25.68,87.56c0-2.11-1.19-2.77-2.6-4.1-.85-.79-9.86-2.44-12.19-10.53C9,66.23,13,55.58,14.4,52.12c-3.2,7.55-7.3,19.71-3,24.41,6.44,7,13.48,7.44,14.28,12.87.36,2.45,1.09,3.63,1.9,3.87h.64l.1,0C27.09,93.12,25.68,89.31,25.68,87.56Z"/><path class="cls-4" d="M35.84,89.1s11.26-6,12.17-7.64-.77-11.69-.77-11.69L51,68.18l3.41,13.92a2.11,2.11,0,0,1-.65,2.09C50.59,87,40.41,96.6,38.46,105.39Z"/><path class="cls-14" d="M50.86,52.18C53.43,48,51.75,40,43.08,38.11c-7.16-1.57-14.33-6-18.19-8.63h0s4,9.58,16.84,9.44C51.84,38.82,52,47.83,50.86,52.18Z"/><g class="cls-19"><path class="cls-20" d="M53.79,84.19a2.11,2.11,0,0,0,.65-2.09L51,68.18l-.63.26c.91,3,3.78,12.87,3.22,14.06-.67,1.41-9.89,10.81-12.47,14.88s-4.66,2.11-4.07,5,.33,15-3.6,19.87c-4.49,5.49-8.24,6.43-11.9,7,2.3-.19,13-.74,15.58-1.35a1.43,1.43,0,0,0,1.1-1.4c0-3.23,0-12.8.21-21.1h0C40.41,96.6,50.59,87,53.79,84.19Z"/><polygon class="cls-20" points="21.03 129.08 21.03 129.08 21.03 129.08 21.03 129.08"/></g><ellipse class="cls-2" cx="160.47" cy="172.15" rx="29.27" ry="5.55"/><path class="cls-3" d="M157.54,170.57s-4.93,1.22-3.25,4c0,0,2.18,2.28,6.43-2.48,0,0,1.32-.58.17-2.15C160.9,170,158.06,169.71,157.54,170.57Z"/><path class="cls-21" d="M157.54,170.57c.3-.49,1.35-.62,2.2-.64-.09.56-.51,1-1.61,1.05,0,0-2.54.34-2.93,1.69-.33,1.14.74,2.52,3.29,1.47-2.78,1.93-4.2.44-4.2.44C152.61,171.79,157.54,170.57,157.54,170.57Z"/><path class="cls-5" d="M153.51,150.18,158,170.64s-.13.84,1.46.55S160.9,170,160.9,170l-1.63-20.35Z"/><path class="cls-22" d="M154.95,156s1.88,10.08,4.48,15.2c-1.52.26-1.4-.57-1.4-.57l-3.47-15.7A3.88,3.88,0,0,1,154.95,156Z"/><path class="cls-22" d="M159.38,151l.57,7.15a29.38,29.38,0,0,1-4.83-.65l-1.32-6Z"/><path class="cls-3" d="M165.31,170.43s4.93,1.22,3.25,4c0,0-2.18,2.28-6.43-2.48,0,0-1.32-.58-.17-2.15C162,169.83,164.79,169.57,165.31,170.43Z"/><path class="cls-21" d="M165.31,170.43c-.3-.49-1.35-.62-2.2-.64.09.56.51,1,1.61,1.05,0,0,2.54.34,2.93,1.69.33,1.14-.74,2.52-3.29,1.47,2.78,1.93,4.2.44,4.2.44C170.25,171.66,165.31,170.43,165.31,170.43Z"/><path class="cls-5" d="M169.34,150l-4.51,20.45s.13.84-1.46.55-1.41-1.22-1.41-1.22l1.63-20.35Z"/><path class="cls-22" d="M167.91,155.86s-1.88,10.08-4.48,15.2c1.52.26,1.4-.57,1.4-.57l3.47-15.7A3.88,3.88,0,0,0,167.91,155.86Z"/><path class="cls-22" d="M163.48,150.84l-.57,7.15a29.38,29.38,0,0,0,4.83-.65l1.32-6Z"/><path class="cls-23" d="M170.19,131s2.76,5.67,2,11.3a98.81,98.81,0,0,1-3.74,14.15,31.47,31.47,0,0,1-7,.74,32,32,0,0,1-7.64-.74s-5.46-12.71-5.06-17.43a39.58,39.58,0,0,1,2.15-9.32Z"/><path class="cls-24" d="M153.73,156.45a31.94,31.94,0,0,0,7.64.74,33.85,33.85,0,0,0,6.26-.57c-13.14.67-14.51-5.39-14.55-5.57h0a7.94,7.94,0,0,1-.93-3.67,18.17,18.17,0,0,0-1-5.73c-1.58-4.42,1-9,1-9a5.18,5.18,0,0,0,0-2.87l-1.41-.09a39.58,39.58,0,0,0-2.15,9.32C148.26,143.75,153.73,156.45,153.73,156.45Z"/><path class="cls-13" d="M175.67,100.4s-1.21,2-3,1.21-.9-6.35,1.48-9.33,7-29-.46-40-21.8-7.91-29.57-4.83-12.74,13.81-14.08,23.73,2.41,17.7,13.68,26.42c0,0,1.54,3.46-1.91,4.21,0,0,8.08,6.25,16.93,3.16C158.77,105,172.72,108.31,175.67,100.4Z"/><path class="cls-5" d="M140,87.29s.4-3.19-.95-4.8c0,0,2.1,0,1.52-1.8s-3-2.9-3-2.9l-2.81,1.05a1.63,1.63,0,0,0-1,2c.56,1.69,1.45,4.41,1.84,6.06Z"/><g class="cls-7"><path class="cls-5" d="M140.06,81a5,5,0,0,0-1-2.28,4.34,4.34,0,0,1,1.51,2c.58,1.82-1.52,1.8-1.52,1.8A1.22,1.22,0,0,0,140.06,81Z"/><path class="cls-5" d="M134.74,78.86l2.81-1.05a6.84,6.84,0,0,1,.68.37h0s-3.11.51-3.61,1.28,1.54,8.21,1.54,8.21l-.43-.12c-.4-1.64-1.41-5-2-6.64A1.63,1.63,0,0,1,134.74,78.86Z"/></g><path class="cls-14" d="M130.08,71.17c1.34-9.92,6.3-20.65,14.08-23.73s22.13-6.17,29.57,4.83c.13.2.26.4.39.61a17.8,17.8,0,0,0-18.73-6.58c-12.19,3-20.71,7.39-21.33,20.45s-4.94,15,4.15,23.23c1.95,1.76,2.68,3.54,2.63,5.23C131.85,87.42,128.86,80.18,130.08,71.17Z"/><path class="cls-14" d="M140.43,94.84c-.4-12.44,1.44-28,13.52-26.07,13.29,2.35,17.7-7.79,17.7-7.79,1.56,3,4.37,7.85,6.14,10.89,0,1.82-.13,3.63-.29,5.37l-4.11,5.71s1.19,1.06,2.94,2.62c-.69,3.42-1.49,5.91-2.13,6.71-2.38,3-3.22,8.52-1.48,9.33s3-1.21,3-1.21c-3,7.91-16.9,4.56-16.9,4.56-8.85,3.08-16.93-3.16-16.93-3.16,3.45-.75,1.91-4.21,1.91-4.21Q142,96.2,140.43,94.84Z"/><path class="cls-6" d="M168.16,104.17s5.56,1.19,6.17,11.25,2.51,19,2.31,19.41a3.71,3.71,0,0,1-4.75,0c-.57-5.72-1-11.46-1.82-17.15q-.42-3-1-5.88a17.81,17.81,0,0,0-.65-3,19,19,0,0,1-1.13-2.26C167.17,106.14,167.22,104,168.16,104.17Z"/><path class="cls-6" d="M150.92,103.81l-8.2-6.05a3.77,3.77,0,0,1-1.5-2.52l-1-7.37a1.13,1.13,0,0,0-.9-1l-3.19-.64a.64.64,0,0,0-.77.66l.56,11.65a5.58,5.58,0,0,0,1.51,3.56l10.84,11.49L151.5,110Z"/><path class="cls-25" d="M150.53,104.5a12.53,12.53,0,0,1,6.5-1.28v.07l5.62.36,1,.06h0a17.51,17.51,0,0,1,4.63,1s4,5.23,3.26,8.58-3.45,8.91-2.42,11.81,3.81,9.62,3.81,9.62-3.1,1.75-5,1.49a11.32,11.32,0,0,1-3.16-1.14h0c-1-.51-1.8-1-1.8-1a14.87,14.87,0,0,1-3.85,0,36.44,36.44,0,0,1-4.59,1.66c-1.9.48-5.17-.91-5.17-.91s2-7,2.7-10-2.62-8.21-3.74-11.47S150.53,104.5,150.53,104.5Z"/><path class="cls-26" d="M157,103.22v.07l5.62.36,1,.06h0a18.7,18.7,0,0,1,3,.51c-.89,2.54-4.57,6.51-4.57,6.51s-2.33-.06-2.27.77a36.09,36.09,0,0,1,.7,6.43,84.54,84.54,0,0,0,.44,11.42,16.81,16.81,0,0,1,0,4.86l-.63,0a15.23,15.23,0,0,0,.21-2.73c-.15-1.39-.24-10.36-.24-10.36s-.07-7.09-.46-8.53-1-2.28-2.1-2.32c-.77,0-1.6-4.38-2-7A9.94,9.94,0,0,1,157,103.22Z"/><path class="cls-4" d="M127.4,21S134,24,135,30.88s.52,13.27-7.58,21.05-17,6.1-21.66,2.88-7.31-12.07-4.89-20.31c1.94-6.62,6.56-13.78,13.64-15.52C118.91,17.89,123.36,19.17,127.4,21Z"/><circle class="cls-4" cx="123.39" cy="71.46" r="1.9"/><ellipse class="cls-4" cx="121.48" cy="62.61" rx="5.52" ry="3.61" transform="translate(-15.03 69.13) rotate(-30)"/><path class="cls-13" d="M114,26.79a8.52,8.52,0,0,0-4.16,5.16c-.8,3.49.4,4.63,2.08,4.43s2.15-2.61,2.75-3.89a2.76,2.76,0,0,1,4-.89c1.14,1,1.68,4.18,0,6.12s-3.89,1.94-4.36,3.82c-.42,1.69-.34,4.84,2.21,4.76,2.29-.07.8-2.41,1.74-3.62s3.69-1.94,4.76-3.49,2.21-4.43,1.81-6.44a8.44,8.44,0,0,0-4.63-6C117.32,25.51,114,26.79,114,26.79Z"/><ellipse class="cls-13" cx="116.48" cy="50.52" rx="1.64" ry="2.01"/><path class="cls-5" d="M161.54,103c-.67-5,.2-3.86,5.83-6.68s12.72-11,9.9-19.27S171.65,61,171.65,61c.93,2.57-2.85,5.86-4.51,7a20.09,20.09,0,0,1-8.58,3.54c-3.2.43-6.19-.77-9.32.52-5.6,2.3-7.22,9.29-6.55,14.82.8,6.7,7.64,9.65,11.67,11.26s2.15,6.17,2.15,6.17l.67,2.28,2.16,3.7,2.33-5.52s.8,0-.09-1.73"/><path class="cls-27" d="M171.89,134.83c-.57-5.72-1-11.46-1.82-17.15q-.42-3-1-5.88a17.81,17.81,0,0,0-.65-3,19,19,0,0,1-1.13-2.26c-.11-.44-.07-2.61.88-2.42a5.45,5.45,0,0,1,2,1.05c.05.83.12,1.66.2,2.48a31.91,31.91,0,0,0,.56,3.53,26.2,26.2,0,0,1,.45,2.73c.61,5.35-.15,10.83,1.19,16.1a30.79,30.79,0,0,1,1,5.56A3.69,3.69,0,0,1,171.89,134.83Z"/><ellipse class="cls-5" cx="177.47" cy="77.36" rx="1.94" ry="3.89" transform="translate(-13.33 44.56) rotate(-13.8)"/><ellipse class="cls-5" cx="141.85" cy="86.11" rx="1.94" ry="3.89" transform="translate(-16.44 36.32) rotate(-13.8)"/><path class="cls-17" d="M163.58,80.22l.13.06a5,5,0,0,1,1,1.52,4.12,4.12,0,0,1,.72,2c-.07,1.77-2.6,2.72-3.31.78C161.89,84,162.53,79.85,163.58,80.22Z"/><ellipse cx="171.89" cy="75.65" rx="0.88" ry="2.26" transform="translate(-13.08 43.18) rotate(-13.8)"/><ellipse cx="152.23" cy="79.57" rx="0.88" ry="2.26" transform="translate(-14.58 38.61) rotate(-13.8)"/><ellipse class="cls-18" cx="150.92" cy="85.1" rx="2.89" ry="1.01"/><ellipse class="cls-18" cx="174.92" cy="80.57" rx="2.89" ry="1.01" transform="translate(-7.45 18.69) rotate(-5.99)"/><path class="cls-13" d="M172.62,68.1a1.27,1.27,0,0,0-.82-.82,1.71,1.71,0,0,0-1.23.08,2.36,2.36,0,0,0-.86.76,1.53,1.53,0,0,1-.73.6,1.06,1.06,0,0,0,1.14-.12,6.32,6.32,0,0,1,.78-.5A2,2,0,0,1,172.62,68.1Z"/><g class="cls-7"><path class="cls-5" d="M144.48,88s4,8.79,12.42,10.71c0,0,1.29,1.16.38,6.33a2.19,2.19,0,0,1-.32.82l-.46-1.57s1.88-4.56-2.15-6.17c-3.45-1.38-9-3.75-11-8.63a1.13,1.13,0,0,1-.6.39c-1,.26-2.3-1.23-2.82-3.31l0-.15C141,87.67,142.64,88.79,144.48,88Z"/><path class="cls-5" d="M146.8,75.65a9.36,9.36,0,0,0-3.42,9.83c-.19-.59-1-2.76-3-2.82a1.1,1.1,0,0,1,.54-.33,1.77,1.77,0,0,1,1.67.86c.3-4.62,2.24-9.33,6.65-11.14,3.13-1.29,6.12-.09,9.32-.52A20.09,20.09,0,0,0,167.13,68c1.67-1.14,5.45-4.44,4.51-7l.3.83c0,1.3-.81,7-10.43,10C150.61,75.26,152.11,71.4,146.8,75.65Z"/><path class="cls-5" d="M143.38,85.48l0,.15Z"/></g><path class="cls-13" d="M153.81,73.94a2.16,2.16,0,0,1-1,.24c-.31,0-.61-.06-1.05,0a2.17,2.17,0,0,0-1.17.44,1.38,1.38,0,0,0-.57,1.06,2.86,2.86,0,0,1,1.79-.7,3.73,3.73,0,0,0,1.12-.16A1.27,1.27,0,0,0,153.81,73.94Z"/><path class="cls-13" d="M163.27,90a2.27,2.27,0,0,0-.92-.94,2.64,2.64,0,0,0-1.32-.35,2.56,2.56,0,0,0-1.32.36,2.45,2.45,0,0,0-.92.93c.43-.12.79-.27,1.17-.35a4.06,4.06,0,0,1,1.07-.14A6.36,6.36,0,0,1,163.27,90Z"/><path class="cls-5" d="M175.84,135.37s2.15,4.09-1.64,4.79c0,0-2.08.54-1.58-2.4s-.06-2.4,1.58-2.4Z"/><path class="cls-6" d="M161.57,103a19,19,0,0,1,7,1.14s4.15,5.43,3.38,8.91-3.59,9.25-2.51,12.27,4,10,4,10-3.22,1.81-5.23,1.55-5.16-2.23-5.16-2.23l-1.64-12.34Z"/><path class="cls-27" d="M161.55,104.58l0-1.56a19,19,0,0,1,7,1.14l.15.2a6.43,6.43,0,0,1,1.43.86h0A9.66,9.66,0,0,1,161.55,104.58Z"/><path class="cls-28" d="M163.28,103l2.87,7.68-2.87,1.94,1.43,1.81-3.32,8,0-.21.2-19.29A15.6,15.6,0,0,1,163.28,103Z"/><path class="cls-6" d="M156.89,102.58a27.56,27.56,0,0,1-7.43.43s-2.84,6.76-1.68,10.13,4.61,8.79,3.88,11.91-2.8,10.37-2.8,10.37,3.4,1.44,5.37.95a37.87,37.87,0,0,0,4.76-1.72V123.21Z"/><path class="cls-27" d="M146,100.2l3.88,2.86a28.64,28.64,0,0,0,7-.48l.16,1.57-1.74,1.06s-7.29.23-9.29-5Z"/><path class="cls-4" d="M161.57,103l-2.64,7.71a6.44,6.44,0,0,1,5.18,0S163.66,103.89,161.57,103Z"/><path class="cls-28" d="M155.35,102.84h0a6.31,6.31,0,0,0,1.55-.25l2.1,20.63v.47l-.07.32-4.38-8.31,1.28-2.06-2.55-2.3Z"/><path class="cls-4" d="M156.84,103l2.64,7.71a6.44,6.44,0,0,0-5.18,0S154.75,103.89,156.84,103Z"/><path class="cls-16" d="M160.47,98.64c.45-1.5,10.77-3.57,14.84-12.34,2-4.25,1.17-10.32-.17-15.45.68,2,1.41,4.07,2.14,6.22,2.82,8.31-4.27,16.46-9.9,19.27s-6.51,1.71-5.83,6.68h0c.89,1.78.09,1.73.09,1.73l-1.16,2.76C160.83,104.59,160.08,99.93,160.47,98.64Z"/><path class="cls-27" d="M135.91,98.58l-.56-11.65a.64.64,0,0,1,.61-.67c0,2.34,0,12.6,1.21,14.29s9.44,8.82,12.41,10.64a1,1,0,0,1,.42,1.14,4.86,4.86,0,0,0,.31,4.06c1.37,2.2,3.16,6.66,2.7,7.61s-4.3,10.87-2.75,11.92h0c-.81-.25-1.38-.49-1.38-.49s2.08-7.25,2.8-10.37-2.72-8.53-3.88-11.91l0-.05-10.34-11A5.58,5.58,0,0,1,135.91,98.58Z"/><circle class="cls-29" cx="159.08" cy="116.1" r="0.53"/><circle class="cls-29" cx="159.48" cy="122.45" r="0.53"/><circle class="cls-29" cx="159.61" cy="129.17" r="0.53"/></g></g></g></svg>