<svg xmlns="http://www.w3.org/2000/svg" viewBox="0 0 452.2 251.2"><defs><style>.cls-1{isolation:isolate;}.cls-2,.cls-5{fill:#faeed4;}.cls-3{fill:#233d57;}.cls-4{fill:#e0e0e0;}.cls-5,.cls-8{opacity:0.5;}.cls-10,.cls-5{mix-blend-mode:multiply;}.cls-6{fill:#87bfca;}.cls-7,.cls-8,.cls-9{fill:#fff;}.cls-8,.cls-9{mix-blend-mode:soft-light;}.cls-10{fill:#84dce6;}.cls-11,.cls-16,.cls-27{fill:none;stroke-linecap:round;stroke-linejoin:round;stroke-width:2.41px;}.cls-11{stroke:#1d0c43;}.cls-12{fill:#1d0c43;}.cls-13{fill:#fd5f5e;}.cls-14{fill:#fbe659;}.cls-15{fill:#f9d200;}.cls-16{stroke:#5d4372;}.cls-17{fill:#ec4948;}.cls-18{fill:#cb3332;}.cls-19{fill:#5d4372;}.cls-20{fill:#4ceef3;}.cls-21{fill:#f9b900;}.cls-22{fill:#f9a300;}.cls-23{fill:#00d5ee;}.cls-24{fill:#86adf8;}.cls-25{fill:#6689e3;}.cls-26{fill:#4a73dd;}.cls-27{stroke:#6689e3;}</style></defs><title>Robots0</title><g class="cls-1"><g id="Capa_2" data-name="Capa 2"><g id="Wizard"><path class="cls-2" d="M265.92,180.91c0-7.66-16.72-13.87-37.36-13.87s-37.36,6.21-37.36,13.87c8.11,7.7,16.72,13.87,37.36,13.87S261.7,186.32,265.92,180.91Z"/><path class="cls-3" d="M162.91,161.37a2.78,2.78,0,0,1-2.66-2c-9.32-31.08,9.32-50.05,10.12-50.84a2.77,2.77,0,0,1,3.92,3.93h0c-.7.7-17.05,17.53-8.72,45.32a2.78,2.78,0,0,1-2.66,3.57Z"/><path class="cls-3" d="M158.8,175.75a2.77,2.77,0,0,1-2.45-1.48,12.68,12.68,0,1,1,22.41-11.86,2.77,2.77,0,1,1-4.9,2.6,7.13,7.13,0,1,0-12.6,6.67,2.77,2.77,0,0,1-2.45,4.07Z"/><ellipse class="cls-3" cx="182" cy="114.97" rx="15.12" ry="23.72" transform="translate(-6.32 10.67) rotate(-3.3)"/><ellipse class="cls-3" cx="275.12" cy="114.97" rx="23.72" ry="15.12" transform="translate(144.5 383.01) rotate(-86.7)"/><path class="cls-3" d="M228.56,219.91c-11.83,0-24.84-14.85-35.69-40.74-9.1-21.73-15.46-48.58-15.46-65.29,0-14.13,4.76-23.87,14.55-29.77,8.16-4.92,20.13-7.31,36.59-7.31s28.42,2.39,36.59,7.31c9.79,5.9,14.55,15.64,14.55,29.77,0,16.71-6.36,43.56-15.46,65.29C253.4,205.06,240.39,219.91,228.56,219.91Z"/><path class="cls-4" d="M281.92,113.88c0-32.06-23.89-39.3-53.36-39.3s-53.36,7.23-53.36,39.3c0,12.61,3.7,32.05,10,51a109.37,109.37,0,0,0,32,7.62,10.76,10.76,0,0,1,21.49,0,108.56,108.56,0,0,0,33.47-8.23C278.3,145.51,281.92,126.35,281.92,113.88Z"/><path class="cls-5" d="M275.58,90.7c-9-12.67-26.68-16.12-47-16.12-14.9,0-28.37,1.86-38,7.83,9.25,12.74,26.59,21.32,46.47,21.32C252.14,103.72,265.83,98.73,275.58,90.7Z"/><ellipse class="cls-3" cx="178.96" cy="48.08" rx="15.33" ry="5.25" transform="translate(127.5 226.09) rotate(-88.91)"/><ellipse class="cls-3" cx="279.76" cy="49.98" rx="15.33" ry="5.25" transform="translate(224.46 328.74) rotate(-88.91)"/><ellipse class="cls-4" cx="229.36" cy="49.03" rx="42.44" ry="53.58" transform="translate(176 277.42) rotate(-88.92)"/><path class="cls-6" d="M202.07,70.75a14,14,0,0,1-13.67-14.2L188.71,40a14,14,0,0,1,14.2-13.67l53.74,1a14,14,0,0,1,13.67,14.2L270,58.09a14,14,0,0,1-14.2,13.67Z"/><path class="cls-3" d="M268.33,41.47A11.94,11.94,0,0,0,256.61,29.3l-53.74-1A11.94,11.94,0,0,0,190.7,40l-.31,16.59a12,12,0,0,0,11.72,12.17l53.74,1A11.94,11.94,0,0,0,268,58.06Z"/><rect class="cls-7" x="218.51" y="59.31" width="3.59" height="3.59"/><rect class="cls-7" x="214.92" y="59.31" width="3.59" height="3.59"/><rect class="cls-7" x="222.1" y="59.31" width="3.59" height="3.59"/><rect class="cls-7" x="225.69" y="59.31" width="3.59" height="3.59"/><rect class="cls-7" x="229.28" y="59.31" width="3.59" height="3.59"/><rect class="cls-7" x="232.87" y="59.31" width="3.59" height="3.59"/><rect class="cls-7" x="236.46" y="59.31" width="3.59" height="3.59"/><rect class="cls-7" x="240.05" y="59.31" width="3.59" height="3.59"/><ellipse class="cls-7" cx="207.43" cy="45.72" rx="8.07" ry="1.92"/><ellipse class="cls-7" cx="249.91" cy="45.72" rx="8.07" ry="1.92"/><path class="cls-8" d="M267.68,37.4,245.79,69.58l6.85.13,15.59-22.92.1-5.32A11.88,11.88,0,0,0,267.68,37.4Zm-8.37-7.72-27,39.66,11.09.21,23.29-34.25A11.94,11.94,0,0,0,259.31,29.67ZM190.81,60A11.93,11.93,0,0,0,194,65.4l25-36.81-6.85-.13Zm12.06-31.67a11.85,11.85,0,0,0-4.75.89L190.7,40.09l-.31,16.5c0,.16,0,.31,0,.46l19.47-28.63Z"/><path class="cls-9" d="M185.6,31.27a53.12,53.12,0,0,1,29.55-20.88c20.16-5.56,1.71,3.87-4.67,6.37S196.1,21.09,185.6,31.27Z"/><path class="cls-3" d="M284.78,113.29a2.77,2.77,0,0,1-2.11-4.57h0c.64-.76,15.61-18.82,5.11-45.87a2.77,2.77,0,0,1,5.17-2c11.74,30.24-5.34,50.63-6.07,51.49A2.76,2.76,0,0,1,284.78,113.29Z"/><path class="cls-3" d="M285,65.16a12.68,12.68,0,0,1-10.72-5.88,2.77,2.77,0,1,1,4.68-3,7.13,7.13,0,0,0,12-7.65,2.77,2.77,0,1,1,4.68-3A12.67,12.67,0,0,1,285,65.16Z"/><path class="cls-7" d="M286.59,89l13.46,5.86s2.42-12-1.15-21.79l-10.4-.56S288.54,83.26,286.59,89Z"/><path class="cls-7" d="M168.66,132.73l-13.28-6.27s-2.78,11.9.49,21.82l10.38.88S166.54,138.38,168.66,132.73Z"/><path class="cls-4" d="M228.56,190.41a78.35,78.35,0,0,1-37.36-9.5c9.63,22.66,22.81,41.22,37.36,41.22s27.73-18.57,37.36-41.22A78.35,78.35,0,0,1,228.56,190.41Z"/><ellipse class="cls-3" cx="227.44" cy="184.15" rx="8.88" ry="11.17"/><ellipse class="cls-7" cx="227.44" cy="179.38" rx="5.23" ry="10.05"/><circle class="cls-3" cx="228.56" cy="112.57" r="12.81"/><circle class="cls-7" cx="228.56" cy="112.57" r="10.75"/><circle class="cls-3" cx="228.56" cy="112.57" r="9.46"/><path class="cls-8" d="M226.29,114.62a9.45,9.45,0,0,0,9.26-7.6,8.92,8.92,0,0,0-15.89,4.86A9.41,9.41,0,0,0,226.29,114.62Z"/><ellipse class="cls-10" cx="227.6" cy="243.99" rx="38.31" ry="7.21"/><path class="cls-3" d="M286,32.11a2.78,2.78,0,0,1-2.53-1.63A34.25,34.25,0,0,0,265.25,13,2.77,2.77,0,0,1,267,7.73a39.25,39.25,0,0,1,21.55,20.45A2.78,2.78,0,0,1,286,32.11Z"/><path class="cls-3" d="M291.86,24.51a2.78,2.78,0,0,1-2.53-1.63A34.24,34.24,0,0,0,271.1,5.41,2.77,2.77,0,0,1,272.84.14a39.25,39.25,0,0,1,21.55,20.45,2.78,2.78,0,0,1-2.53,3.92Z"/><path class="cls-11" d="M375.68,95.83v11.35a3.76,3.76,0,0,0,3.76,3.76h.3a3.76,3.76,0,0,1,3.76,3.76v13.46"/><path class="cls-12" d="M258.11,133.63c-2.32-.91-19.49-5.51-20.41-3.2s14.78,10.68,17.1,11.59a4.51,4.51,0,0,0,3.31-8.4Z"/><circle class="cls-12" cx="328.52" cy="142.55" r="7.12" transform="translate(-4.58 274.05) rotate(-45)"/><circle class="cls-12" cx="302.04" cy="166.7" r="7.12" transform="translate(26.06 373.71) rotate(-65.77)"/><path class="cls-12" d="M267,142a3.07,3.07,0,0,0-.37.44,3,3,0,0,0,.81,4.18l34.14,23.1a3,3,0,0,0,3.76-.31l24.76-23.5a3.05,3.05,0,0,0,.11-4.25,3,3,0,0,0-4.25-.11l-23,21.83-32.14-21.75A3,3,0,0,0,267,142Z"/><circle class="cls-13" cx="280.62" cy="151.49" r="9.48" transform="translate(27.31 345.21) rotate(-65.77)"/><circle class="cls-14" cx="269.09" cy="144.14" r="18.95" transform="translate(27.21 330.36) rotate(-65.77)"/><ellipse class="cls-15" cx="257.93" cy="139.11" rx="9.16" ry="4.32" transform="translate(25.21 317.22) rotate(-65.77)"/><path class="cls-12" d="M259.33,145.58c-2.47-.3-20.25-.39-20.55,2.09s17,6.58,19.48,6.87a4.51,4.51,0,0,0,1.07-9Z"/><path class="cls-12" d="M270.35,129.8c-1.77-1.75-15.75-12.74-17.5-11s9.38,15.63,11.16,17.38a4.51,4.51,0,0,0,6.35-6.42Z"/><rect class="cls-12" x="329.09" y="187.89" width="11.83" height="51.29" transform="translate(670.01 427.08) rotate(180)"/><line class="cls-16" x1="340.7" y1="200.53" x2="329.31" y2="200.53"/><line class="cls-16" x1="340.7" y1="207" x2="329.31" y2="207"/><line class="cls-16" x1="340.7" y1="213.46" x2="329.31" y2="213.46"/><line class="cls-16" x1="340.7" y1="219.93" x2="329.31" y2="219.93"/><line class="cls-16" x1="340.7" y1="226.4" x2="329.31" y2="226.4"/><line class="cls-16" x1="340.7" y1="232.87" x2="329.31" y2="232.87"/><rect class="cls-13" x="306.31" y="237.23" width="25.82" height="13.24" rx="6.07" ry="6.07" transform="translate(638.45 487.7) rotate(180)"/><rect class="cls-17" x="316.31" y="237.23" width="33.44" height="13.24" rx="5.79" ry="5.79" transform="translate(666.07 487.7) rotate(-180)"/><rect class="cls-18" x="331.23" y="231.94" width="3.61" height="23.82" rx="1.38" ry="1.38" transform="translate(576.88 -89.19) rotate(90)"/><rect class="cls-12" x="374.92" y="187.89" width="11.83" height="51.29" transform="translate(761.67 427.08) rotate(180)"/><line class="cls-16" x1="386.53" y1="200.53" x2="375.14" y2="200.53"/><line class="cls-16" x1="386.53" y1="207" x2="375.14" y2="207"/><line class="cls-16" x1="386.53" y1="213.46" x2="375.14" y2="213.46"/><line class="cls-16" x1="386.53" y1="219.93" x2="375.14" y2="219.93"/><line class="cls-16" x1="386.53" y1="226.4" x2="375.14" y2="226.4"/><line class="cls-16" x1="386.53" y1="232.87" x2="375.14" y2="232.87"/><rect class="cls-13" x="352.14" y="237.23" width="25.82" height="13.24" rx="6.07" ry="6.07" transform="translate(730.11 487.7) rotate(180)"/><rect class="cls-17" x="362.15" y="237.23" width="33.44" height="13.24" rx="5.79" ry="5.79" transform="translate(757.73 487.7) rotate(-180)"/><rect class="cls-18" x="377.06" y="231.94" width="3.61" height="23.82" rx="1.38" ry="1.38" transform="translate(622.72 -135.02) rotate(90)"/><polygon class="cls-12" points="360.24 128.02 346.4 128.02 334.37 98.24 348.2 98.24 360.24 128.02"/><polygon class="cls-19" points="368.56 128.02 359.54 128.02 347.5 98.24 356.53 98.24 368.56 128.02"/><rect class="cls-13" x="325.09" y="95.23" width="45.73" height="13.24" rx="6.07" ry="6.07" transform="translate(695.91 203.7) rotate(-180)"/><rect class="cls-17" x="358.18" y="95.23" width="12.64" height="13.24" rx="5.79" ry="5.79" transform="translate(729 203.7) rotate(180)"/><path class="cls-14" d="M289.07,101.4a6.47,6.47,0,0,1-6.41-7.34,64.57,64.57,0,0,1,128,0,6.47,6.47,0,0,1-6.41,7.34Z"/><path class="cls-15" d="M390.48,94.06A64.61,64.61,0,0,0,336.57,39a64.53,64.53,0,0,1,74.06,55.09,6.47,6.47,0,0,1-6.41,7.34H384.07A6.47,6.47,0,0,0,390.48,94.06Z"/><rect class="cls-15" x="315.77" y="27.98" width="30.08" height="88.44" rx="10.38" ry="10.38" transform="translate(403.01 -258.61) rotate(90)"/><rect class="cls-13" x="313.56" y="25.43" width="30.08" height="87.04" rx="10.3" ry="10.3" transform="translate(397.56 -259.64) rotate(90)"/><rect class="cls-12" x="291.09" y="59.93" width="75.01" height="18.05" rx="4.78" ry="4.78" transform="translate(657.2 137.91) rotate(180)"/><circle class="cls-20" cx="346.65" cy="69.79" r="4.81"/><circle class="cls-20" cx="300.92" cy="69.79" r="4.81"/><rect class="cls-14" x="315.46" y="121.4" width="85.44" height="73.41" rx="8.55" ry="8.55" transform="translate(716.37 316.22) rotate(180)"/><rect class="cls-15" x="368.81" y="121.4" width="32.09" height="73.41" rx="8.55" ry="8.55" transform="translate(769.72 316.22) rotate(180)"/><rect class="cls-21" x="352.44" y="146.88" width="64.83" height="22.46" rx="4.14" ry="4.14" transform="translate(542.97 -226.75) rotate(90)"/><path class="cls-12" d="M428.34,198.56c1,2.29,9.88,17.68,12.17,16.69s-2.9-18-3.89-20.29a4.51,4.51,0,0,0-8.28,3.6Z"/><circle class="cls-12" cx="384.86" cy="142.46" r="7.12"/><circle class="cls-12" cx="420.66" cy="144.12" r="7.12" transform="translate(-23.77 158.53) rotate(-20.77)"/><path class="cls-12" d="M428,186.38a3.08,3.08,0,0,0,.57-.05A3,3,0,0,0,431,182.8l-7.81-40.48a3,3,0,0,0-2.88-2.44L386.16,139a3.05,3.05,0,0,0-3.09,2.93A3,3,0,0,0,386,145l31.71.83,7.35,38.1A3,3,0,0,0,428,186.38Z"/><circle class="cls-13" cx="425.05" cy="170.02" r="9.48" transform="translate(-32.67 161.77) rotate(-20.77)"/><circle class="cls-14" cx="428.01" cy="183.37" r="18.95" transform="translate(-37.21 163.68) rotate(-20.77)"/><ellipse class="cls-15" cx="432.35" cy="194.81" rx="9.16" ry="4.32" transform="translate(-40.99 165.97) rotate(-20.77)"/><path class="cls-12" d="M435.93,189.25c1.54,2,14,14.6,16,13.05s-7.37-16.67-8.91-18.63a4.51,4.51,0,0,0-7.09,5.58Z"/><path class="cls-12" d="M417,192.61c0,2.49,2.13,20.15,4.62,20.13s4.42-17.69,4.4-20.18a4.51,4.51,0,0,0-9,0Z"/><line class="cls-11" x1="358.38" y1="133.27" x2="358.38" y2="150.11"/><line class="cls-11" x1="352.84" y1="133.27" x2="352.84" y2="150.11"/><line class="cls-11" x1="347.29" y1="133.27" x2="347.29" y2="150.11"/><line class="cls-11" x1="341.74" y1="133.27" x2="341.74" y2="150.11"/><line class="cls-11" x1="336.19" y1="133.27" x2="336.19" y2="150.11"/><line class="cls-11" x1="330.64" y1="133.27" x2="330.64" y2="150.11"/><line class="cls-11" x1="325.09" y1="133.27" x2="325.09" y2="150.11"/><rect class="cls-15" x="323.99" y="158.11" width="35.3" height="26.98" rx="2.16" ry="2.16" transform="translate(683.27 343.19) rotate(180)"/><rect class="cls-21" x="332.96" y="158.76" width="17.35" height="25.67" transform="translate(513.23 -170.04) rotate(90)"/><rect class="cls-22" x="335.08" y="160.88" width="17.35" height="21.44" transform="translate(515.35 -172.16) rotate(90)"/><path class="cls-11" d="M84.15,50h-21C61.42,50,60,52.25,60,55V88.46c0,2.75,1.41,5,3.16,5h0c1.74,0,3.16,2.23,3.16,5v10c0,2.75,1.41,5,3.16,5H88.67"/><path class="cls-11" d="M25.34,146h-21c-1.74,0-3.16,2-3.16,4.44v29.81c0,2.45,1.41,4.44,3.16,4.44h0c1.74,0,3.16,2,3.16,4.44V198c0,2.45,1.41,4.44,3.16,4.44H29.87"/><rect class="cls-12" x="7.97" y="113.68" width="85.44" height="73.41" rx="8.55" ry="8.55"/><rect class="cls-19" x="7.97" y="113.68" width="32.09" height="73.41" rx="8.55" ry="8.55"/><rect class="cls-12" x="-8.4" y="139.15" width="64.83" height="22.46" rx="4.14" ry="4.14" transform="translate(174.4 126.36) rotate(90)"/><polygon class="cls-12" points="78.52 118.91 92.36 118.91 109.66 74.12 95.83 74.12 78.52 118.91"/><polygon class="cls-19" points="70.2 118.91 79.23 118.91 96.53 74.12 87.5 74.12 70.2 118.91"/><rect class="cls-20" x="73.21" y="71.11" width="45.73" height="13.24" rx="6.07" ry="6.07"/><rect class="cls-23" x="73.21" y="71.11" width="12.64" height="13.24" rx="5.79" ry="5.79"/><rect class="cls-24" x="37.98" y="39.6" width="119.18" height="38.49" rx="8.55" ry="8.55"/><path class="cls-25" d="M129.09,39.6H111.93a9.33,9.33,0,0,1,9.33,9.33V68.77a9.33,9.33,0,0,1-9.33,9.33h17.16a9.33,9.33,0,0,0,9.33-9.33V48.93A9.33,9.33,0,0,0,129.09,39.6Z"/><rect class="cls-25" x="37.98" y="39.6" width="44.76" height="38.49" rx="8.55" ry="8.55"/><rect class="cls-26" x="47.09" y="43.18" width="26.53" height="31.33" rx="4.14" ry="4.14" transform="translate(119.21 -1.51) rotate(90)"/><rect class="cls-19" x="93.37" y="46.39" width="66.87" height="25.3" rx="11.45" ry="11.45"/><rect class="cls-12" x="97.99" y="51.01" width="57.63" height="16.06" rx="5.31" ry="5.31"/><circle class="cls-20" cx="129.86" cy="58.76" r="4.68"/><circle class="cls-20" cx="113.8" cy="58.76" r="4.68"/><circle class="cls-20" cx="146.61" cy="58.76" r="4.68"/><rect class="cls-12" x="48.78" y="49.19" width="23.17" height="18.87" rx="7.28" ry="7.28"/><rect class="cls-20" x="48.78" y="49.19" width="18.87" height="18.87" rx="7.28" ry="7.28"/><circle class="cls-12" cx="58.21" cy="58.63" r="5.39"/><line class="cls-11" x1="58.21" y1="58.63" x2="58.21" y2="33.89"/><circle class="cls-12" cx="58.21" cy="33" r="3.57"/><path class="cls-12" d="M113.1,179.1H59.63a40.7,40.7,0,1,0,53.47,0Z"/><path class="cls-19" d="M91.28,201.05h-27a20.56,20.56,0,1,0,27,0Z"/><path class="cls-12" d="M88.65,204.56H66.89a16.56,16.56,0,1,0,21.76,0Z"/><path class="cls-19" d="M113.1,179.1H88.43a35.85,35.85,0,0,1-14.76,68.52c-.84,0-1.68,0-2.51-.1A40.69,40.69,0,0,0,113.1,179.1Z"/><path class="cls-24" d="M45.68,224.77H127a8.66,8.66,0,0,0,6-2.41,67.11,67.11,0,1,0-93.41,0A8.64,8.64,0,0,0,45.68,224.77Z"/><path class="cls-25" d="M45.68,224.77H83a59.11,59.11,0,0,1,24.33-113c1.39,0,2.77.07,4.14.16A67.09,67.09,0,0,0,39.65,222.35,8.66,8.66,0,0,0,45.68,224.77Z"/><rect class="cls-12" x="16.16" y="171.23" width="140.4" height="5.94" rx="2.72" ry="2.72"/><circle class="cls-19" cx="59.89" cy="143.93" r="8.66"/><path class="cls-12" d="M106.32,130.79l11.46,1.8c-4.71,30-41.44,38.36-59.16,18.51-2.87-3.22-2.78-7,.19-9.49h0c2.34-1.46,5.23-1.64,8.26,1.47C79.08,156,103.2,150.68,106.32,130.79Z"/><path class="cls-16" d="M66.55,157.1l5.6-9.73"/><path class="cls-16" d="M76.69,160.84l2.29-11"/><path class="cls-16" d="M87.41,161.3l-1.2-11.1"/><path class="cls-16" d="M97.78,158.56,93.2,148.35"/><path class="cls-16" d="M106.89,152.74l-7.55-8.31"/><path class="cls-16" d="M113.8,143.93l-9.8-5.44"/><path class="cls-12" d="M103.52,99.28a3,3,0,1,1,4.2,4.33,10.69,10.69,0,1,0,15.12.23,3,3,0,1,1,4.33-4.2,16.73,16.73,0,1,1-23.65-.37Z"/><rect class="cls-20" x="101.62" y="112.81" width="24.83" height="24.83" rx="11.38" ry="11.38" transform="translate(283.08 135.77) rotate(135.89)"/><circle class="cls-12" cx="114.04" cy="125.23" r="5.97" transform="translate(-55.01 114.69) rotate(-44.11)"/><circle class="cls-19" cx="130.64" cy="145.07" r="8.66"/><path class="cls-12" d="M176.31,130.79l11.46,1.8c-4.71,30-41.44,38.36-59.16,18.51-2.87-3.22-2.78-7,.19-9.49h0c2.34-1.46,5.23-1.64,8.26,1.47C149.07,156,173.19,150.68,176.31,130.79Z"/><path class="cls-16" d="M136.54,157.1l5.6-9.73"/><path class="cls-16" d="M146.68,160.84l2.29-11"/><path class="cls-16" d="M157.4,161.3l-1.2-11.1"/><path class="cls-16" d="M167.77,158.56l-4.58-10.21"/><path class="cls-16" d="M176.87,152.74l-7.55-8.31"/><path class="cls-16" d="M183.79,143.93l-9.8-5.44"/><path class="cls-12" d="M173.51,99.28a3,3,0,1,1,4.2,4.33,10.69,10.69,0,1,0,15.12.23,3,3,0,0,1,4.33-4.2,16.73,16.73,0,1,1-23.65-.37Z"/><rect class="cls-20" x="171.61" y="112.81" width="24.83" height="24.83" rx="11.38" ry="11.38" transform="translate(403.32 87.05) rotate(135.89)"/><circle class="cls-12" cx="184.03" cy="125.23" r="5.97" transform="translate(-35.27 163.41) rotate(-44.11)"/><line class="cls-27" x1="77.17" y1="188.16" x2="77.17" y2="207.88"/><line class="cls-27" x1="82.04" y1="188.16" x2="82.04" y2="207.88"/><line class="cls-27" x1="86.9" y1="188.16" x2="86.9" y2="207.88"/><line class="cls-27" x1="91.77" y1="188.16" x2="91.77" y2="207.88"/><line class="cls-27" x1="96.64" y1="188.16" x2="96.64" y2="207.88"/><line class="cls-27" x1="101.5" y1="188.16" x2="101.5" y2="207.88"/><line class="cls-27" x1="106.37" y1="188.16" x2="106.37" y2="207.88"/><line class="cls-27" x1="106.55" y1="188.16" x2="106.55" y2="207.88"/><line class="cls-27" x1="111.41" y1="188.16" x2="111.41" y2="207.88"/><line class="cls-27" x1="116.28" y1="188.16" x2="116.28" y2="207.88"/><line class="cls-27" x1="121.15" y1="188.16" x2="121.15" y2="207.88"/><line class="cls-27" x1="126.01" y1="188.16" x2="126.01" y2="207.88"/><line class="cls-27" x1="130.88" y1="188.16" x2="130.88" y2="207.88"/><line class="cls-27" x1="135.75" y1="188.16" x2="135.75" y2="207.88"/></g></g></g></svg>