<svg xmlns="http://www.w3.org/2000/svg" xmlns:xlink="http://www.w3.org/1999/xlink" viewBox="0 0 144 148.5"><defs><style>.cls-1,.cls-2{fill:#0d4d8e;}.cls-1,.cls-5{stroke:#0d4d8e;stroke-miterlimit:10;stroke-width:6px;}.cls-3{clip-path:url(#clip-path);}.cls-4{fill:#fff;}.cls-5{fill:none;}</style><clipPath id="clip-path"><circle class="cls-1" cx="72" cy="72" r="69"/></clipPath></defs><title>woman-icon0</title><g id="Capa_2" data-name="Capa 2"><g id="Dashboard"><circle class="cls-2" cx="72" cy="72" r="69"/><g class="cls-3"><path class="cls-4" d="M130.67,147.56s-3.82-22.45-9-31.73-11.33-9.33-20.33-12.33c-5-1.67-8.1-2.28-13-4-6.66-2.33-6-8.4-5.83-15.47,7.55,3.29,19.83.14,19.83.14-7.11-4.74-6.25-15.52-5.57-19.83,1.11.35,4,.63,4.58-5.84S99,51.89,97.83,52.06a68.17,68.17,0,0,0,.17-17C96.67,24.73,82.5,10.29,65.33,16.83a37.09,37.09,0,0,0-11,6.33S38.86,26.34,45.73,52c-1.32,0-3.54.78-3.07,6.47.42,5,2.27,6,3.6,6,.67,4.41,1.43,15-5.6,19.68,0,0,13,3.33,20.47-.44l0,0,.33.29c.15,7.08.5,13.17-5.83,15.5-4.88,1.8-8,2.33-13,4-9,3-15.07,2.91-20.33,12.33s-9,31.73-9,31.73L72,148.5Z"/></g><circle class="cls-5" cx="72" cy="72" r="69"/></g></g></svg>