<svg xmlns="http://www.w3.org/2000/svg" viewBox="0 0 68.01 68"><defs><style>.cls-1{fill:#0d4d8e;}.cls-2{fill:#fff;}</style></defs><title>User-icon0</title><g id="Capa_2" data-name="Capa 2"><g id="Dashboard"><path class="cls-1" d="M68,34A34,34,0,1,1,34.1,0,34,34,0,0,1,68,34ZM10.86,55.9a31.82,31.82,0,0,0,46.22,0c-.4-.42-.77-.87-1.2-1.26A15.18,15.18,0,0,0,51.73,52c-2.39-1-4.83-1.95-7.24-2.92a9.2,9.2,0,0,1-2.81-1.61,3,3,0,0,1-1-1.83,27,27,0,0,1-.1-4.73.51.51,0,0,1,.09-.25c.39-.6.81-1.18,1.19-1.79A8.74,8.74,0,0,0,43.17,36a19.87,19.87,0,0,0,.37-2.62,1.92,1.92,0,0,1,.94-1.86s.06-.06.1-.09a4.38,4.38,0,0,0,1.28-2.63,9.72,9.72,0,0,0,.2-3,.92.92,0,0,0-.69-.78,3.91,3.91,0,0,0-.41-.09c0-.09,0-.15,0-.22a16.51,16.51,0,0,0,.48-5.09,11.45,11.45,0,0,0-1.15-4.69,5.2,5.2,0,0,0-3.94-3.07,21.55,21.55,0,0,1-2.84-.66,18.92,18.92,0,0,0-5-.51,9.81,9.81,0,0,0-5.55,1.62A9.5,9.5,0,0,0,23.09,17a11.75,11.75,0,0,0-.42,6.15c.1.6.25,1.19.38,1.79-1,.15-1.27.45-1.22,1.45s.21,1.86.33,2.79a3.48,3.48,0,0,0,1,2c.31.32.67.59,1,.9a.58.58,0,0,1,.18.32c.06.58.06,1.17.17,1.74A15.8,15.8,0,0,0,25.11,37a17,17,0,0,0,2.17,3.66.68.68,0,0,1,.13.36c0,1.25,0,2.51,0,3.76a3.36,3.36,0,0,1-1.11,2.67,5.09,5.09,0,0,1-1,.74q-1.77.83-3.58,1.58c-1.67.69-3.37,1.32-5,2a17.16,17.16,0,0,0-4.57,2.84C11.66,55,11.28,55.47,10.86,55.9Z"/><path class="cls-2" d="M10.86,55.9c.41-.43.8-.9,1.25-1.29a17.16,17.16,0,0,1,4.57-2.84c1.66-.72,3.36-1.35,5-2q1.81-.75,3.58-1.58a5.09,5.09,0,0,0,1-.74,3.36,3.36,0,0,0,1.11-2.67c0-1.25,0-2.51,0-3.76a.68.68,0,0,0-.13-.36A17,17,0,0,1,25.11,37a15.8,15.8,0,0,1-.65-2.87c-.1-.57-.1-1.16-.17-1.74a.58.58,0,0,0-.18-.32c-.32-.31-.68-.58-1-.9a3.48,3.48,0,0,1-1-2c-.13-.93-.28-1.86-.33-2.79s.25-1.3,1.22-1.45c-.13-.6-.28-1.19-.38-1.79A11.75,11.75,0,0,1,23.09,17a9.5,9.5,0,0,1,3.85-4.68,9.81,9.81,0,0,1,5.55-1.62,18.92,18.92,0,0,1,5,.51,21.55,21.55,0,0,0,2.84.66,5.2,5.2,0,0,1,3.94,3.07,11.45,11.45,0,0,1,1.15,4.69A16.51,16.51,0,0,1,45,24.66c0,.06,0,.13,0,.22a3.91,3.91,0,0,1,.41.09.92.92,0,0,1,.69.78,9.72,9.72,0,0,1-.2,3,4.38,4.38,0,0,1-1.28,2.63s-.06.07-.1.09a1.92,1.92,0,0,0-.94,1.86A19.87,19.87,0,0,1,43.17,36a8.74,8.74,0,0,1-1.35,2.9c-.38.61-.79,1.19-1.19,1.79a.51.51,0,0,0-.09.25,27,27,0,0,0,.1,4.73,3,3,0,0,0,1,1.83,9.2,9.2,0,0,0,2.81,1.61c2.41,1,4.85,1.89,7.24,2.92a15.18,15.18,0,0,1,4.16,2.67c.43.39.8.84,1.2,1.26A31.82,31.82,0,0,1,10.86,55.9Z"/></g></g></svg>